<?xml version="1.0" standalone="no"?><!DOCTYPE svg PUBLIC "-//W3C//DTD SVG 1.1//EN" "http://www.w3.org/Graphics/SVG/1.1/DTD/svg11.dtd"><svg t="1554126560801" class="icon" style="" viewBox="0 0 1024 1024" version="1.1" xmlns="http://www.w3.org/2000/svg" p-id="1488" xmlns:xlink="http://www.w3.org/1999/xlink" width="200" height="200"><defs><style type="text/css"></style></defs><path d="M516.2 124.8h-30v65.5h-65.8v30.1h65.8v65.7h30v-65.7h65.4v-30.1h-65.4z" p-id="1489"></path><path d="M639.6 511.8c9.9-7.2 19.3-15.3 28.2-24.1 41.5-41.5 65.6-95.7 68.7-153.9 6.5-6.3 10.6-15.1 10.6-24.9v-207c0-19-15.5-34.5-34.5-34.5H289.4c-19 0-34.5 15.5-34.5 34.5v207c0 9.8 4.1 18.6 10.6 24.9 3.1 58.2 27.2 112.4 68.7 153.9 9.3 9.3 19.3 17.8 29.9 25.3-80.9 10.1-143.8 79.3-143.8 163v245.9c0 19 15.5 34.5 34.5 34.5h511.9c19 0 34.5-15.5 34.5-34.5V676c0.1-89.7-72.2-162.9-161.6-164.2zM299.9 112.4H702v186H299.9v-186z m11.6 231h379C679.3 438 598.6 511.7 501 511.7s-178.3-73.6-189.5-168.3z m58.8 399.4c0 6.7-5.5 12.2-12.2 12.2-6.7 0-12.2-5.5-12.2-12.2s5.5-12.2 12.2-12.2c6.7 0 12.2 5.5 12.2 12.2z m386 168.6H265.4V676c0-31.7 12.4-61.6 35-84.2 14.1-14.1 31.2-24.3 49.7-29.9-10.9 31.3-22.9 78.9-20 131.2-17.4 9.8-29.1 28.5-29.1 49.8 0 31.5 25.7 57.2 57.2 57.2s57.2-25.7 57.2-57.2c0-25.7-17.1-47.5-40.5-54.7-2.5-57.1 15.9-108.7 25.4-131.4h204.8c7.3 26.6 20.3 82.9 15.3 130.8-14.2 3.4-23.9 10.6-30.2 17.2-27 28.3-21.6 80-20.9 85.4h45.5c-1.2-9.8-4-59.4 26.1-59.4 27.9 0 22.8 51.4 20.4 59.7v-0.1l43.2-0.3c1.4-4.7 12.8-46.5-8.1-76.9-5.6-8.1-15.2-17.7-31-23.1 4.5-48-5.5-100.3-13.4-132.4 26.1 3.3 50.3 15.1 69.4 34.1 22.6 22.6 35 52.5 35 84.2v235.4z" p-id="1490"></path></svg>