<?xml version="1.0" standalone="no"?><!DOCTYPE svg PUBLIC "-//W3C//DTD SVG 1.1//EN" "http://www.w3.org/Graphics/SVG/1.1/DTD/svg11.dtd"><svg t="1554126596369" class="icon" style="" viewBox="0 0 1025 1024" version="1.1" xmlns="http://www.w3.org/2000/svg" p-id="2352" xmlns:xlink="http://www.w3.org/1999/xlink" width="200.1953125" height="200"><defs><style type="text/css"></style></defs><path d="M506.772638 387.53813c-4.465606 4.776362-6.425993 10.283203-6.061763 16.407521 0.43183 5.995172 2.511273 13.341326 6.614666 21.790261l41.25994-34.157952c-9.123921-7.222053-17.323646-10.892608-24.304561-11.260874C517.426125 379.947811 511.488463 382.396529 506.772638 387.53813z" p-id="2353"></path><path d="M506.663671 16.478147c-277.79581 0-503.027421 225.231611-503.027421 503.027421s225.231611 503.02843 503.027421 503.02843c277.792783 0 503.02843-225.231611 503.02843-503.02843S784.457464 16.478147 506.663671 16.478147zM267.123153 294.151874c12.711742-13.999161 19.033814-24.072502 19.033814-30.457129 0-7.249295-6.138443-12.650196-18.360845-16.212794l0-10.191389 154.436721-31.806093c-4.545313 22.963668-12.038774 41.997482-22.474328 56.857275l20.387822-4.051937c30.395583-7.24425 57.594817-10.806847 81.667319-10.806847l193.793784 0c34.508057 3.563606 52.192906 16.951344 53.053539 39.915012 0 5.895286-18.111635 28.736871-54.403512 68.406709l4.052946 0c54.896888 0 82.344323 27.26078 82.344323 81.913502L780.654737 567.76862 326.317153 567.76862c-14.060706 0-34.509066 5.161781-61.219969 15.476261l-34.69673-39.17747L658.210764 544.06741l0-69.140214L352.844427 474.927196c-16.335885 0-39.421636 6.138443-69.389425 18.296272l-34.01569-41.997482L645.255865 451.225987c3.68468 0 7.980783-0.370284 12.954899-1.353l0-33.155057c0-24.810044-14.059697-37.212039-42.185146-37.212039L326.317153 379.505891c-13.632912 0-33.160102 3.558561-58.521031 10.806847l-34.691685-34.509066 325.13971 0 55.078499-65.703736c0-12.650196-7.921255-18.915767-23.822283-18.915767l-87.686706 0c-24.500297 0-51.271736 3.074266-80.317346 9.457883l-48.263052 9.458892c-1.843349 1.348964-3.625152 2.698937-5.405946 4.051937-33.155057 23.457044-80.56252 38.805168-142.215328 46.054464l-5.40191-13.50982C237.893915 319.451258 253.49125 308.644411 267.123153 294.151874zM645.255865 713.302379c-3.563606 32.9119-18.789648 50.473658-45.565123 52.804329-27.137688 0-42.125618-19.400062-44.823546-58.208257-5.033644-38.806177-18.422391-74.052785-40.159177-105.619756l10.867384-13.627867c37.150493 20.754071 68.467246 44.456289 93.89073 71.105646C636.656597 676.950973 645.255865 694.757906 645.255865 713.302379zM294.388977 738.353562c-16.828252 34.75424-47.896803 66.808534-93.212717 96.160864l-7.493461-7.493461c18.112644-50.106401 27.876238-98.613618 29.230247-145.528715 0-17.68384-8.842425-28.245513-26.527274-31.804075L196.385773 633.350273l135.337326-39.298544C326.748983 655.459361 314.283424 703.60033 294.388977 738.353562zM674.54564 812.77663c-17.684849 12.650196-45.992918 19.032805-85.046287 19.032805L453.485022 831.809435c-56.674655 0-85.04427-20.998236-85.04427-62.999754L368.440753 655.087059c0-11.790572-5.156736-20.631988-15.596326-26.404182l0-13.632912 129.93138-31.805084 0 198.460171c2.213633 17.560749 13.753986 26.404182 34.635184 26.404182l72.088362 0c35.36869 0 58.947816-5.034653 70.73738-14.982885 14.491527-9.946214 28.12444-25.914842 40.836182-48.017877l18.356809 7.492452C706.717981 779.616529 691.79866 799.761195 674.54564 812.77663zM777.890218 831.810444c-27.632073 0-42.617985-18.544474-44.828591-55.507302-6.383617-62.756597-21.552149-119.862074-45.560079-171.322483l10.807856-13.631903c38.133209 32.055303 69.877756 68.406709 95.300231 109.054217 18.052107 26.653393 27.137688 53.670007 27.137688 81.30208C817.127216 813.760355 802.819317 830.462489 777.890218 831.810444z" p-id="2354"></path></svg>