<?xml version="1.0" standalone="yes"?>
<svg xmlns="http://www.w3.org/2000/svg" width="180" height="180">
<path style="fill:#ffffff; stroke:none;" d="M0 0L0 180L180 180L180 0L0 0z"/>
<path style="fill:#fad5d4; stroke:none;" d="M106 24C107.506 24.683 108.315 24.8259 110 25C108.494 24.317 107.685 24.1741 106 24z"/>
<path style="fill:#be9596; stroke:none;" d="M110.667 24.3333C110.222 24.7778 111.278 24.7222 111.333 24.6667C111.778 24.2222 110.722 24.2778 110.667 24.3333z"/>
<path style="fill:#8b5b5e; stroke:none;" d="M112.667 24.3333C112.222 24.7778 113.278 24.7222 113.333 24.6667C113.778 24.2223 112.722 24.2778 112.667 24.3333z"/>
<path style="fill:#571019; stroke:none;" d="M105 25C110.959 27.5005 119.564 26 126 26C119.55 23.2872 111.813 24.9812 105 25z"/>
<path style="fill:#97686b; stroke:none;" d="M117 24L118 25L117 24z"/>
<path style="fill:#dfb3b5; stroke:none;" d="M118.667 24.3333C118.222 24.7778 119.278 24.7222 119.333 24.6667C119.778 24.2222 118.722 24.2778 118.667 24.3333z"/>
<path style="fill:#bdaead; stroke:none;" d="M54.6667 25.3333C54.2222 25.7778 55.2778 25.7222 55.3333 25.6667C55.7778 25.2222 54.7222 25.2778 54.6667 25.3333z"/>
<path style="fill:#fadedb; stroke:none;" d="M91 25C93.3316 25.9845 95.4567 25.9813 98 26C95.6684 25.0155 93.5434 25.0187 91 25z"/>
<path style="fill:#a67677; stroke:none;" d="M98 25L99 26L98 25z"/>
<path style="fill:#701419; stroke:none;" d="M88 31C97.0439 31 105.95 31.2142 115 30.9506C119.704 30.8136 125.125 30.0638 129 33C134.592 31.6686 140.283 32 146 32L147 39C149.686 38.4992 152.27 38.1174 155 38C154.886 27.7557 149.024 26.4313 140 25.7539C129.641 24.9762 119.372 26.5002 109 25.9213C102.666 25.5678 91.6676 24.7655 88 31z"/>
<path style="fill:#764042; stroke:none;" d="M102.667 25.3333C102.222 25.7778 103.278 25.7223 103.333 25.6667C103.778 25.2222 102.722 25.2778 102.667 25.3333z"/>
<path style="fill:#cf9e9d; stroke:none;" d="M130 25C132.052 25.8743 133.747 25.9528 136 26C133.948 25.1258 132.253 25.0472 130 25z"/>
<path style="fill:#4a1316; stroke:none;" d="M138 25C139.769 25.7789 141.036 25.9124 143 26C141.231 25.2211 139.964 25.0876 138 25z"/>
<path style="fill:#3a0004; stroke:none;" d="M143 25C144.506 25.683 145.315 25.8259 147 26C145.494 25.317 144.685 25.1741 143 25z"/>
<path style="fill:#804a4f; stroke:none;" d="M147 25L148 26L147 25z"/>
<path style="fill:#926c6c; stroke:none;" d="M28 26L29 27L28 26z"/>
<path style="fill:#e6bdbd; stroke:none;" d="M29 26C30.769 26.7789 32.0359 26.9124 34 27C32.231 26.2211 30.9641 26.0876 29 26z"/>
<path style="fill:#cba2a2; stroke:none;" d="M37 26C38.2483 26.6848 38.5485 26.7488 40 27C38.7516 26.3152 38.4516 26.2512 37 26z"/>
<path style="fill:#f0c7c8; stroke:none;" d="M40 26C41.2483 26.6848 41.5485 26.7488 43 27C41.7516 26.3152 41.4516 26.2512 40 26z"/>
<path style="fill:#c19898; stroke:none;" d="M43 26C46.1633 27.3274 49.5856 26.9996 53 27C49.8367 25.6726 46.4144 26.0004 43 26z"/>
<path style="fill:#7b4047; stroke:none;" d="M53 26L54 27L53 26z"/>
<path style="fill:#440a11; stroke:none;" d="M54 26C55.1393 27.0154 55.6116 27.3087 57 28C56.0197 26.2167 56.0924 26.4057 54 26z"/>
<path style="fill:#84484f; stroke:none;" d="M57.6667 26.3333C57.2222 26.7778 58.2778 26.7222 58.3333 26.6667C58.7778 26.2222 57.7222 26.2778 57.6667 26.3333z"/>
<path style="fill:#6f1419; stroke:none;" d="M24 31C23.2999 34.7495 20.9549 38.2252 20.7917 42.0039C20.5272 48.1242 22.9328 53.9089 23 60C21.5215 59.0143 21.7968 59 20 59C18.8816 69.2041 20.7124 79.7979 21.1775 90C21.5661 98.5236 20.015 107.344 20.3534 116C20.71 125.121 17.0085 131.464 22 140L25 138L25 143C28.0222 143.823 30.6044 146.004 33.7292 146.428C41.4538 147.477 49.1989 144.573 57 146C51.2419 139.409 37.3666 145.272 31.7639 137.529C27.042 131.003 28.7221 123.352 28.1204 116C27.1593 104.259 28.9241 92.7165 29.4552 81C29.8299 72.7361 28.6212 64.2817 29.338 56C29.6193 52.7488 30.6008 49.2529 30.3218 46C29.9121 41.2244 27.7689 36.5105 31.7685 32.4074C34.0779 30.0383 38.0243 30.9401 41 31C49.3545 31.1682 57.7439 31.3133 65.9992 32.7762C69.6001 33.4143 73.3646 35.7643 72.6235 39.9807C71.1694 48.2524 59.1236 40.6564 55 46C48.9482 44.2072 37.8617 42.7514 34.7423 50.1049C33.0452 54.1057 33.8026 59.6767 33 64C34.6867 65.2005 34.7632 65.0307 35 67C36.7968 67 36.5215 66.9857 38 66C37.466 63.3297 38.7849 63.557 36 63C38.4663 58.2601 37.0897 52.8293 41 49L39 53L43 52L43 48C47.1507 50.9715 53.0609 51.0694 58 52C60.3204 48.1326 72.0304 50 77 50C77.9499 50 81.2805 50.5396 82 50C84.855 47.8587 83.4254 43.5523 83 41C82.3019 36.8115 87.1333 30.0666 81 27C76.5126 24.7563 71.3361 28.084 67 27C64.2037 26.3009 61.7198 26 59 26C58.5069 26 56.5057 27.9438 56 28L56 27C53.2351 26.5392 51.2852 27.6191 49 28C43.2582 28.957 36.6337 26.5916 31 28C28.1382 28.7155 26.8213 30.1787 25 32L24 31z"/>
<path style="fill:#b17a80; stroke:none;" d="M60 26C61.2483 26.6848 61.5485 26.7488 63 27C61.7516 26.3152 61.4516 26.2512 60 26z"/>
<path style="fill:#a1656c; stroke:none;" d="M66 26L67 27L66 26z"/>
<path style="fill:#73383f; stroke:none;" d="M67 26C68.2484 26.6848 68.5484 26.7488 70 27C68.7517 26.3152 68.4515 26.2512 67 26z"/>
<path style="fill:#aa7077; stroke:none;" d="M70.6667 26.3333C70.2222 26.7778 71.2778 26.7222 71.3333 26.6667C71.7777 26.2223 70.7223 26.2777 70.6667 26.3333z"/>
<path style="fill:#854d54; stroke:none;" d="M74 26L75 27L74 26z"/>
<path style="fill:#d49ea3; stroke:none;" d="M75.6667 26.3333C75.2222 26.7778 76.2778 26.7222 76.3333 26.6667C76.7778 26.2222 75.7222 26.2777 75.6667 26.3333z"/>
<path style="fill:#b47b82; stroke:none;" d="M89 26L90 27L89 26z"/>
<path style="fill:#580d14; stroke:none;" d="M86 31C90.5581 32.3473 95.2698 32 100 32C96.3025 30.4485 91.9832 31 88 31C91.0753 27.6905 94.6415 27.5003 99 27C93.8638 24.8456 88.8052 26.1947 86 31z"/>
<path style="fill:#bf8389; stroke:none;" d="M149 26L150 27L149 26z"/>
<path style="fill:#f0bcc0; stroke:none;" d="M150 26L151 27L150 26z"/>
<path style="fill:#9a7071; stroke:none;" d="M151 26L152 27L151 26z"/>
<path style="fill:#9e6c70; stroke:none;" d="M27 27L28 28L27 27z"/>
<path style="fill:#5a131b; stroke:none;" d="M25 32C28.2251 29.8373 31.1513 28.5794 35 28C30.611 26.1762 26.4706 27.3442 25 32z"/>
<path style="fill:#4c0810; stroke:none;" d="M35 27C39.7238 28.9822 45.9098 28 51 28C46.2762 26.0178 40.0902 27 35 27z"/>
<path style="fill:#e0b8b6; stroke:none;" d="M81 27L82 28L81 27z"/>
<path style="fill:#44060b; stroke:none;" d="M149.667 27.3333C149.222 27.7778 150.278 27.7222 150.333 27.6667C150.778 27.2222 149.722 27.2778 149.667 27.3333z"/>
<path style="fill:#55272a; stroke:none;" d="M151.667 27.3333C151.222 27.7778 152.278 27.7222 152.333 27.6667C152.778 27.2222 151.722 27.2778 151.667 27.3333z"/>
<path style="fill:#7f5456; stroke:none;" d="M82 28L83 29L82 28z"/>
<path style="fill:#bc878c; stroke:none;" d="M153.333 28.6667C153.278 28.7222 153.222 29.7778 153.667 29.3333C153.722 29.2778 153.778 28.2222 153.333 28.6667z"/>
<path style="fill:#9f7375; stroke:none;" d="M83 29L84 30L83 29z"/>
<path style="fill:#865e63; stroke:none;" d="M86 29L87 30L86 29z"/>
<path style="fill:#9a6b70; stroke:none;" d="M24 30L25 31L24 30z"/>
<path style="fill:#5f1214; stroke:none;" d="M29 44C30.2235 41.1698 30.1202 37.7598 32.0093 35.1836C35.1855 30.8522 43.2367 32.2781 48 32C44.7037 30.6168 34.6342 29.1058 31.7685 31.6427C28.4733 34.56 29.003 40.0629 29 44z"/>
<path style="fill:#5a090f; stroke:none;" d="M117 31C120.697 32.5515 125.017 32 129 32C125.399 30.4856 120.822 30.3534 117 31z"/>
<path style="fill:#5f1314; stroke:none;" d="M49 31C52.3774 32.7956 57.2302 34.1658 60 31L49 31z"/>
<path style="fill:#bd9a9d; stroke:none;" d="M86 31L87 32L86 31z"/>
<path style="fill:#a05e61; stroke:none;" d="M102 31C103.506 31.683 104.315 31.8259 106 32C104.494 31.317 103.685 31.1741 102 31z"/>
<path style="fill:#470002; stroke:none;" d="M107 31C110.163 32.3274 113.586 31.9996 117 32C113.837 30.6726 110.414 31.0004 107 31z"/>
<path style="fill:#c78c90; stroke:none;" d="M33 32C34.2483 32.6848 34.5485 32.7488 36 33C34.7516 32.3152 34.4516 32.2512 33 32z"/>
<path style="fill:#410208; stroke:none;" d="M37 32C38.769 32.7789 40.0359 32.9124 42 33C40.231 32.2211 38.9641 32.0876 37 32z"/>
<path style="fill:#8b6263; stroke:none;" d="M43.6667 32.3333C43.2223 32.7778 44.2778 32.7222 44.3333 32.6667C44.7778 32.2222 43.7222 32.2778 43.6667 32.3333z"/>
<path style="fill:#b38a8a; stroke:none;" d="M45 32C47.0521 32.8742 48.7472 32.9528 51 33C48.9479 32.1258 47.2528 32.0472 45 32z"/>
<path style="fill:#885b5c; stroke:none;" d="M51.6667 32.3333C51.2223 32.7778 52.2778 32.7222 52.3333 32.6667C52.7778 32.2222 51.7222 32.2778 51.6667 32.3333z"/>
<path style="fill:#360003; stroke:none;" d="M60.6667 32.3333C60.2223 32.7778 61.2778 32.7223 61.3333 32.6667C61.7778 32.2222 60.7222 32.2778 60.6667 32.3333z"/>
<path style="fill:#976966; stroke:none;" d="M64 32C65.2484 32.6848 65.5484 32.7488 67 33C65.7517 32.3152 65.4515 32.2512 64 32z"/>
<path style="fill:#af767c; stroke:none;" d="M88 32C89.506 32.683 90.3148 32.8259 92 33C90.4939 32.317 89.6852 32.1741 88 32z"/>
<path style="fill:#5b3d3a; stroke:none;" d="M92.6667 32.3333C92.2222 32.7778 93.2778 32.7222 93.3333 32.6667C93.7778 32.2222 92.7222 32.2778 92.6667 32.3333z"/>
<path style="fill:#9c8c84; stroke:none;" d="M94 32L95 33L94 32z"/>
<path style="fill:#e7c7ca; stroke:none;" d="M106 32L107 33L106 32z"/>
<path style="fill:#9f787b; stroke:none;" d="M107 32C108.506 32.683 109.315 32.8259 111 33C109.494 32.317 108.685 32.1741 107 32z"/>
<path style="fill:#f1cad0; stroke:none;" d="M117.667 32.3333C117.222 32.7778 118.278 32.7222 118.333 32.6667C118.778 32.2223 117.722 32.2778 117.667 32.3333z"/>
<path style="fill:#c79099; stroke:none;" d="M119 32C120.769 32.7789 122.036 32.9124 124 33C122.231 32.2211 120.964 32.0876 119 32z"/>
<path style="fill:#926f6f; stroke:none;" d="M124 32C125.248 32.6848 125.548 32.7488 127 33C125.752 32.3152 125.452 32.2512 124 32z"/>
<path style="fill:#5e3536; stroke:none;" d="M127.667 32.3333C127.222 32.7777 128.278 32.7223 128.333 32.6667C128.778 32.2221 127.722 32.2778 127.667 32.3333z"/>
<path style="fill:#4c030c; stroke:none;" d="M130 32C134.724 33.9822 140.91 33 146 33C141.276 31.0178 135.09 32 130 32z"/>
<path style="fill:#8f5855; stroke:none;" d="M23 33L24 34L23 33z"/>
<path style="fill:#deb6b7; stroke:none;" d="M32 33L33 34L32 33z"/>
<path style="fill:#caa2a3; stroke:none;" d="M38.6667 33.3333C38.2222 33.7778 39.2778 33.7222 39.3333 33.6667C39.7778 33.2222 38.7222 33.2778 38.6667 33.3333z"/>
<path style="fill:#a46d75; stroke:none;" d="M69 33L70 34L69 33z"/>
<path style="fill:#ffdce1; stroke:none;" d="M131 33C134.163 34.3274 137.586 33.9996 141 34C137.837 32.6726 134.414 33.0004 131 33z"/>
<path style="fill:#d7a1a7; stroke:none;" d="M141 33L142 34L141 33z"/>
<path style="fill:#9c6168; stroke:none;" d="M142.667 33.3333C142.222 33.7778 143.278 33.7222 143.333 33.6667C143.778 33.2222 142.722 33.2778 142.667 33.3333z"/>
<path style="fill:#ffc7c9; stroke:none;" d="M144.667 33.3333C144.222 33.7778 145.278 33.7222 145.333 33.6667C145.778 33.2222 144.722 33.2778 144.667 33.3333z"/>
<path style="fill:#561f22; stroke:none;" d="M20 34L21 38C22.2699 37.0275 23.0275 36.2699 24 35L20 34z"/>
<path style="fill:#d3afad; stroke:none;" d="M21 34L22 35L21 34z"/>
<path style="fill:#ae7b7e; stroke:none;" d="M71 34L72 35L71 34z"/>
<path style="fill:#c59c9a; stroke:none;" d="M31 35L32 36L31 35z"/>
<path style="fill:#a16d6b; stroke:none;" d="M72 35L73 36L72 35z"/>
<path style="fill:#d3d3cc; stroke:none;" d="M119 35L120 36L119 35z"/>
<path style="fill:#4d1b1e; stroke:none;" d="M120 35L119 40L122 40C121.614 37.8573 121.255 36.7505 120 35z"/>
<path style="fill:#99908e; stroke:none;" d="M121 35L122 36L121 35z"/>
<path style="fill:#784248; stroke:none;" d="M146 35L146 38C146.696 36.4463 146.696 36.5537 146 35z"/>
<path style="fill:#67383c; stroke:none;" d="M20.3333 36.6667C20.2778 36.7222 20.2222 37.7778 20.6667 37.3333C20.7222 37.2778 20.7778 36.2222 20.3333 36.6667z"/>
<path style="fill:#8d4b4f; stroke:none;" d="M22 36L23 37L22 36z"/>
<path style="fill:#b99196; stroke:none;" d="M119 36L120 37L119 36z"/>
<path style="fill:#7c565d; stroke:none;" d="M121 36L122 37L121 36z"/>
<path style="fill:#a77b7a; stroke:none;" d="M30 37L31 38L30 37z"/>
<path style="fill:#b98387; stroke:none;" d="M20 38L21 39L20 38z"/>
<path style="fill:#e4cec8; stroke:none;" d="M30 38L30 41C30.6961 39.4463 30.6961 39.5537 30 38z"/>
<path style="fill:#45030c; stroke:none;" d="M83 38L83 42C83.7102 40.2405 83.7102 39.7595 83 38z"/>
<path style="fill:#ceaebb; stroke:none;" d="M142 38L143 39L142 38z"/>
<path style="fill:#d4acb4; stroke:none;" d="M146 38L147 39L146 38z"/>
<path style="fill:#915b61; stroke:none;" d="M149 38L150 39L149 38z"/>
<path style="fill:#b28584; stroke:none;" d="M150 38C151.248 38.6848 151.548 38.7488 153 39C151.752 38.3152 151.452 38.2512 150 38z"/>
<path style="fill:#49302b; stroke:none;" d="M153 38L153 40C154.635 39.455 154.455 39.6351 155 38L153 38z"/>
<path style="fill:#34191c; stroke:none;" d="M98.6667 39.3333C98.2222 39.7778 99.2778 39.7222 99.3333 39.6667C99.7778 39.2222 98.7222 39.2778 98.6667 39.3333z"/>
<path style="fill:#dca8aa; stroke:none;" d="M122 39L123 40L122 39z"/>
<path style="fill:#1d0007; stroke:none;" d="M141.667 39.3333C141.222 39.7778 142.278 39.7222 142.333 39.6667C142.778 39.2222 141.722 39.2778 141.667 39.3333z"/>
<path style="fill:#c8a7ae; stroke:none;" d="M148 39L149 40L148 39z"/>
<path style="fill:#9d565e; stroke:none;" d="M20 40L21 41L20 40z"/>
<path style="fill:#90676c; stroke:none;" d="M99 40L100 41L99 40z"/>
<path style="fill:#6c303b; stroke:none;" d="M100.333 40.6667C100.278 40.7222 100.222 41.7778 100.667 41.3333C100.722 41.2777 100.778 40.2223 100.333 40.6667z"/>
<path style="fill:#d09ba1; stroke:none;" d="M101 40L102 41L101 40z"/>
<path style="fill:#9f5c5d; stroke:none;" d="M117 40L118 41L117 40z"/>
<path style="fill:#70131e; stroke:none;" d="M100 47C94.6889 46.9373 91.9471 45.4811 88 42C87.004 45.6227 86.9223 50.2845 89.1644 53.5856C91.7541 57.3986 95.8947 57.6996 96 63C100.51 62.0386 100.352 56.7149 106 56L106 63L109 63L110 55C118.729 55 130.345 52.1843 130 64L133 64C133.117 61.27 133.499 58.6858 134 56C136.095 56.2382 137.889 56.1841 140 56L140 64L144 64C144.092 56.2694 148.182 57.2193 151.91 51.7755C154.034 48.6752 154.364 44.5849 154 41C152.42 42.3904 150.896 44.1778 148.981 45.1157C144.06 47.5266 140.246 43.4901 135.741 42.4167C133.478 41.8775 131.27 42.7975 129 42.5417C122.425 41.8007 119.825 39.9019 113 41.9861C109.298 43.1165 100.59 42.7279 100 47z"/>
<path style="fill:#97575a; stroke:none;" d="M123 40L124 41L123 40z"/>
<path style="fill:#ad8d8f; stroke:none;" d="M139 40L140 41L139 40z"/>
<path style="fill:#421f21; stroke:none;" d="M140 40C139.816 42.2231 139.76 42.1897 141 44C141.046 41.9315 141.05 41.7346 140 40z"/>
<path style="fill:#d0b4b2; stroke:none;" d="M141.333 40.6667C141.278 40.7222 141.222 41.7778 141.667 41.3333C141.722 41.2777 141.778 40.2223 141.333 40.6667z"/>
<path style="fill:#8f6870; stroke:none;" d="M86 41L87 42L86 41z"/>
<path style="fill:#320005; stroke:none;" d="M87 41L86 43L88 43C88 41.1468 88.2997 41.6498 87 41z"/>
<path style="fill:#ebc6ce; stroke:none;" d="M88 41L89 42L88 41z"/>
<path style="fill:#42030c; stroke:none;" d="M101 41C102.248 41.6848 102.548 41.7488 104 42C102.752 41.3152 102.452 41.2512 101 41z"/>
<path style="fill:#773d44; stroke:none;" d="M104 41L105 42L104 41z"/>
<path style="fill:#dfabb0; stroke:none;" d="M105 41L106 42L105 41z"/>
<path style="fill:#620a12; stroke:none;" d="M104 44L109 43C106.638 41.5001 105.64 41.72 104 44z"/>
<path style="fill:#825f63; stroke:none;" d="M108 41L109 42L108 41z"/>
<path style="fill:#bc8e91; stroke:none;" d="M114 41L115 42L114 41z"/>
<path style="fill:#ab7e80; stroke:none;" d="M125 41L126 42L125 41z"/>
<path style="fill:#6c4e4b; stroke:none;" d="M132 41L133 42L132 41z"/>
<path style="fill:#3a080c; stroke:none;" d="M133.667 41.3333C133.222 41.7778 134.278 41.7222 134.333 41.6667C134.778 41.2222 133.722 41.2778 133.667 41.3333z"/>
<path style="fill:#b47f80; stroke:none;" d="M135 41L136 42L135 41z"/>
<path style="fill:#763d42; stroke:none;" d="M136 41L137 42L136 41z"/>
<path style="fill:#330103; stroke:none;" d="M137.667 41.3333C137.222 41.7778 138.278 41.7222 138.333 41.6667C138.778 41.2222 137.722 41.2778 137.667 41.3333z"/>
<path style="fill:#56353c; stroke:none;" d="M154 41L155 42L154 41z"/>
<path style="fill:#b68a8a; stroke:none;" d="M19 42L19 53C20.4309 49.59 20.4309 45.41 19 42z"/>
<path style="fill:#5c1015; stroke:none;" d="M20 42C20 48.1826 20.3898 54.0088 22 60C24.0069 55.2048 21.9713 46.6857 20 42z"/>
<path style="fill:#bd7f81; stroke:none;" d="M72 42L73 43L72 42z"/>
<path style="fill:#3f050b; stroke:none;" d="M99 42C99.5451 43.6352 99.3648 43.4549 101 44L101 42L99 42z"/>
<path style="fill:#742e33; stroke:none;" d="M101 42L101 44C102.635 43.4549 102.455 43.6352 103 42L101 42z"/>
<path style="fill:#bb737c; stroke:none;" d="M103 42L104 43L103 42z"/>
<path style="fill:#b07b81; stroke:none;" d="M109 42L110 43L109 42z"/>
<path style="fill:#f1c9cd; stroke:none;" d="M110 42L111 43L110 42z"/>
<path style="fill:#9c7276; stroke:none;" d="M111 42L112 43L111 42z"/>
<path style="fill:#905659; stroke:none;" d="M127 42L128 43L127 42z"/>
<path style="fill:#dcacae; stroke:none;" d="M128 42L129 43L128 42z"/>
<path style="fill:#d18b90; stroke:none;" d="M137.667 42.3333C137.222 42.7778 138.278 42.7222 138.333 42.6667C138.778 42.2222 137.722 42.2778 137.667 42.3333z"/>
<path style="fill:#cfb5b0; stroke:none;" d="M142 42L143 43L142 42z"/>
<path style="fill:#844254; stroke:none;" d="M152 42L153 43L152 42z"/>
<path style="fill:#b4908f; stroke:none;" d="M39 43C40.2483 43.6848 40.5485 43.7488 42 44C40.7516 43.3152 40.4516 43.2512 39 43z"/>
<path style="fill:#7e4f51; stroke:none;" d="M42 43C43.769 43.7789 45.0359 43.9124 47 44C45.231 43.2211 43.9641 43.0876 42 43z"/>
<path style="fill:#ad8081; stroke:none;" d="M47 43L48 44L47 43z"/>
<path style="fill:#deb8b7; stroke:none;" d="M48.6667 43.3333C48.2222 43.7778 49.2778 43.7222 49.3333 43.6667C49.7778 43.2222 48.7222 43.2778 48.6667 43.3333z"/>
<path style="fill:#9d7575; stroke:none;" d="M50 43C51.2483 43.6848 51.5485 43.7488 53 44C51.7516 43.3152 51.4516 43.2512 50 43z"/>
<path style="fill:#c39497; stroke:none;" d="M53.6667 43.3333C53.2222 43.7778 54.2778 43.7222 54.3333 43.6667C54.7778 43.2222 53.7222 43.2778 53.6667 43.3333z"/>
<path style="fill:#8b565c; stroke:none;" d="M55 43C56.2483 43.6848 56.5485 43.7488 58 44C56.7516 43.3152 56.4516 43.2512 55 43z"/>
<path style="fill:#94575c; stroke:none;" d="M60 43C61.2483 43.6848 61.5485 43.7488 63 44C61.7516 43.3152 61.4516 43.2512 60 43z"/>
<path style="fill:#500e16; stroke:none;" d="M63 43C65.5607 44.2322 68.1781 44.6349 71 45C68.4146 43.2315 66.1157 43.0725 63 43z"/>
<path style="fill:#d39ea2; stroke:none;" d="M69 43C70.2484 43.6848 70.5484 43.7488 72 44C70.7517 43.3152 70.4515 43.2512 69 43z"/>
<path style="fill:#aa737b; stroke:none;" d="M86 43L87 44L86 43z"/>
<path style="fill:#d6a2a6; stroke:none;" d="M89 43L90 44L89 43z"/>
<path style="fill:#c99f9f; stroke:none;" d="M99 43L100 44L99 43z"/>
<path style="fill:#ffd1d8; stroke:none;" d="M102.667 43.3333C102.222 43.7778 103.278 43.7222 103.333 43.6667C103.778 43.2222 102.722 43.2778 102.667 43.3333z"/>
<path style="fill:#ffb2b8; stroke:none;" d="M137.667 43.3333C137.222 43.7778 138.278 43.7222 138.333 43.6667C138.778 43.2222 137.722 43.2778 137.667 43.3333z"/>
<path style="fill:#8d4a4c; stroke:none;" d="M139 43L140 44L139 43z"/>
<path style="fill:#bd9491; stroke:none;" d="M141 43L142 44L141 43z"/>
<path style="fill:#e4afb8; stroke:none;" d="M151 43L152 44L151 43z"/>
<path style="fill:#9e5a6c; stroke:none;" d="M154 43L155 44L154 43z"/>
<path style="fill:#9f7576; stroke:none;" d="M30 44L31 45L30 44z"/>
<path style="fill:#ba9091; stroke:none;" d="M37 44L38 45L37 44z"/>
<path style="fill:#4e0f15; stroke:none;" d="M34 50C36.8863 47.7214 39.4579 46.0525 43 45C38.5432 43.2784 34.7998 45.351 34 50z"/>
<path style="fill:#520910; stroke:none;" d="M45 44C48.1118 45.3087 51.6795 45.209 55 46C52.5689 43.2178 48.5094 44.0004 45 44z"/>
<path style="fill:#f6c3c3; stroke:none;" d="M90 44L91 45L90 44z"/>
<path style="fill:#b67979; stroke:none;" d="M100 44L101 45L100 44z"/>
<path style="fill:#814746; stroke:none;" d="M140 44L141 45L140 44z"/>
<path style="fill:#ffd9e1; stroke:none;" d="M154 44L154 47C154.696 45.4463 154.696 45.5537 154 44z"/>
<path style="fill:#bf9697; stroke:none;" d="M34.6667 45.3333C34.2223 45.7778 35.2778 45.7222 35.3333 45.6667C35.7778 45.2222 34.7222 45.2778 34.6667 45.3333z"/>
<path style="fill:#9d6666; stroke:none;" d="M91 45L92 46L91 45z"/>
<path style="fill:#b18c8a; stroke:none;" d="M92 45C93.2484 45.6848 93.5484 45.7488 95 46C93.7517 45.3152 93.4515 45.2512 92 45z"/>
<path style="fill:#86625b; stroke:none;" d="M146.667 45.3333C146.222 45.7778 147.278 45.7222 147.333 45.6667C147.778 45.2222 146.722 45.2777 146.667 45.3333z"/>
<path style="fill:#cda9a2; stroke:none;" d="M148 45L149 46L148 45z"/>
<path style="fill:#885d59; stroke:none;" d="M149 45L150 46L149 45z"/>
<path style="fill:#953841; stroke:none;" d="M21.3333 46.6667C21.2778 46.7222 21.2222 47.7778 21.6667 47.3333C21.7222 47.2778 21.7778 46.2222 21.3333 46.6667z"/>
<path style="fill:#a47576; stroke:none;" d="M33 46L34 47L33 46z"/>
<path style="fill:#3e1e18; stroke:none;" d="M83 46L82 50C83.303 48.3324 83.553 48.0078 83 46z"/>
<path style="fill:#520d11; stroke:none;" d="M92 46C94.6127 47.0977 97.1645 46.9928 100 47C97.3873 45.9023 94.8355 46.0072 92 46z"/>
<path style="fill:#fed5d0; stroke:none;" d="M33.3333 47.6667C33.2778 47.7222 33.2222 48.7778 33.6667 48.3333C33.7222 48.2778 33.7778 47.2222 33.3333 47.6667z"/>
<path style="fill:#cac8b8; stroke:none;" d="M84 47L85 48L84 47z"/>
<path style="fill:#a48183; stroke:none;" d="M30.3333 48.6667C30.2778 48.7222 30.2222 49.7778 30.6667 49.3333C30.7222 49.2778 30.7778 48.2222 30.3333 48.6667z"/>
<path style="fill:#5e1717; stroke:none;" d="M43 48C42.4347 51.3402 42.9317 54.6017 43 58C44.4492 55.1587 45.3561 52.1254 46 49C44.2629 49.062 44.36 49.02 43 48z"/>
<path style="fill:#6e5f58; stroke:none;" d="M84 48L85 49L84 48z"/>
<path style="fill:#855356; stroke:none;" d="M87 48L88 49L87 48z"/>
<path style="fill:#92585b; stroke:none;" d="M153 48L153 51C153.696 49.4463 153.696 49.5537 153 48z"/>
<path style="fill:#4c000d; stroke:none;" d="M29.3333 49.6667C29.2778 49.7222 29.2222 50.7778 29.6667 50.3333C29.7222 50.2778 29.7778 49.2222 29.3333 49.6667z"/>
<path style="fill:#77514e; stroke:none;" d="M33 49L33 52C33.6961 50.4463 33.6961 50.5537 33 49z"/>
<path style="fill:#721317; stroke:none;" d="M39 49C37.6122 53.6952 37.7862 58.3384 36 63C37.671 64.7856 37.1656 66.5908 37 69C46.249 71.0111 56.7482 67.4655 65.9853 69.4684C68.5344 70.0211 70.7084 71.8418 73 73L69 86C70.6801 86.4 72.2904 86.806 74.0239 86.9051C84.0864 87.4802 82.7242 78.1966 83.0394 71C83.1824 67.7327 85.1614 62.5301 82.3958 59.9082C80.4132 58.0285 77.4683 58.6349 75 58.3989C66.4959 57.586 57.6009 60.0383 49.0046 59.973C44.4087 59.938 43.2842 55.7671 43 52L39 53C39.9573 51.4834 40.3872 50.6614 41 49L39 49z"/>
<path style="fill:#b89f9a; stroke:none;" d="M83 49L84 50L83 49z"/>
<path style="fill:#d0aaa9; stroke:none;" d="M87.3333 49.6667C87.2778 49.7222 87.2222 50.7778 87.6667 50.3333C87.7223 50.2777 87.7778 49.2223 87.3333 49.6667z"/>
<path style="fill:#4d0106; stroke:none;" d="M46 50C47.506 50.683 48.3148 50.8259 50 51C48.494 50.317 47.6852 50.1741 46 50z"/>
<path style="fill:#4c0b0e; stroke:none;" d="M58 50C64.2023 52.6026 73.2977 51 80 51C73.7977 48.3974 64.7023 50 58 50z"/>
<path style="fill:#84444c; stroke:none;" d="M80 50L81 51L80 50z"/>
<path style="fill:#daa6aa; stroke:none;" d="M81 50L82 51L81 50z"/>
<path style="fill:#ffcdd2; stroke:none;" d="M46 51C47.506 51.683 48.3148 51.8259 50 52C48.494 51.317 47.6852 51.1741 46 51z"/>
<path style="fill:#a1666c; stroke:none;" d="M50 51C51.2483 51.6848 51.5485 51.7488 53 52C51.7516 51.3152 51.4516 51.2512 50 51z"/>
<path style="fill:#b87f84; stroke:none;" d="M53 51C54.2483 51.6848 54.5485 51.7488 56 52C54.7516 51.3152 54.4516 51.2512 53 51z"/>
<path style="fill:#b68285; stroke:none;" d="M58 51L59 52L58 51z"/>
<path style="fill:#f8c1c5; stroke:none;" d="M59 51C60.2483 51.6848 60.5485 51.7488 62 52C60.7516 51.3152 60.4516 51.2512 59 51z"/>
<path style="fill:#a26c71; stroke:none;" d="M62 51C63.2483 51.6848 63.5485 51.7488 65 52C63.7516 51.3152 63.4516 51.2512 62 51z"/>
<path style="fill:#fbccd2; stroke:none;" d="M65 51C66.2484 51.6848 66.5484 51.7488 68 52C66.7517 51.3152 66.4515 51.2512 65 51z"/>
<path style="fill:#b78387; stroke:none;" d="M68 51C69.2484 51.6848 69.5484 51.7488 71 52C69.7517 51.3152 69.4515 51.2512 68 51z"/>
<path style="fill:#f0c5c9; stroke:none;" d="M71 51C72.506 51.683 73.3148 51.8259 75 52C73.4939 51.317 72.6852 51.1741 71 51z"/>
<path style="fill:#bc9297; stroke:none;" d="M75 51C76.2484 51.6848 76.5484 51.7488 78 52C76.7517 51.3152 76.4515 51.2512 75 51z"/>
<path style="fill:#ffd2d7; stroke:none;" d="M78.6667 51.3333C78.2222 51.7778 79.2778 51.7222 79.3333 51.6667C79.7778 51.2222 78.7222 51.2778 78.6667 51.3333z"/>
<path style="fill:#3f0003; stroke:none;" d="M152.333 51.6667C152.278 51.7222 152.222 52.7778 152.667 52.3333C152.722 52.2777 152.778 51.2222 152.333 51.6667z"/>
<path style="fill:#c79295; stroke:none;" d="M153 51L154 52L153 51z"/>
<path style="fill:#85424b; stroke:none;" d="M29.3333 52.6667C29.2777 52.7223 29.2222 53.7778 29.6667 53.3333C29.7222 53.2778 29.7778 52.2222 29.3333 52.6667z"/>
<path style="fill:#c39598; stroke:none;" d="M33 52L33 55C33.6961 53.4463 33.6961 53.5537 33 52z"/>
<path style="fill:#87585c; stroke:none;" d="M20 53L21 54L20 53z"/>
<path style="fill:#dfbbc3; stroke:none;" d="M44 53L44 59C44.9511 56.7147 44.9511 55.2853 44 53z"/>
<path style="fill:#7d3d46; stroke:none;" d="M88 53L89 54L88 53z"/>
<path style="fill:#501217; stroke:none;" d="M151 53C148.699 54.2222 146.467 55.159 144 56C146.261 57.1229 152.211 56.2575 151 53z"/>
<path style="fill:#794045; stroke:none;" d="M152 53L153 54L152 53z"/>
<path style="fill:#e2b6b8; stroke:none;" d="M152 54L153 55L152 54z"/>
<path style="fill:#4a0b13; stroke:none;" d="M29 55L29 61C29.9511 58.7147 29.9511 57.2853 29 55z"/>
<path style="fill:#7c4c52; stroke:none;" d="M33.3333 55.6667C33.2778 55.7222 33.2222 56.7778 33.6667 56.3333C33.7222 56.2778 33.7778 55.2222 33.3333 55.6667z"/>
<path style="fill:#915d5d; stroke:none;" d="M90 55L91 56L90 55z"/>
<path style="fill:#570b13; stroke:none;" d="M110 55C115.469 57.295 123.099 56 129 56C123.531 53.705 115.901 55 110 55z"/>
<path style="fill:#a6777a; stroke:none;" d="M150 55L151 56L150 55z"/>
<path style="fill:#e9b3b5; stroke:none;" d="M21 56L22 57L21 56z"/>
<path style="fill:#9f8581; stroke:none;" d="M30 56L30 59C30.6961 57.4463 30.6961 57.5537 30 56z"/>
<path style="fill:#a87f7e; stroke:none;" d="M80 56L81 57L80 56z"/>
<path style="fill:#ce9f9e; stroke:none;" d="M93 56L94 57L93 56z"/>
<path style="fill:#560005; stroke:none;" d="M102 56C103.506 56.683 104.315 56.8259 106 57C104.494 56.317 103.685 56.1741 102 56z"/>
<path style="fill:#836261; stroke:none;" d="M110 56C113.163 57.3274 116.586 56.9996 120 57C116.837 55.6726 113.414 56.0004 110 56z"/>
<path style="fill:#b1908d; stroke:none;" d="M120 56C122.332 56.9845 124.457 56.9813 127 57C124.668 56.0155 122.543 56.0187 120 56z"/>
<path style="fill:#dc9fa1; stroke:none;" d="M127.667 56.3333C127.222 56.7778 128.278 56.7222 128.333 56.6667C128.778 56.2223 127.722 56.2778 127.667 56.3333z"/>
<path style="fill:#ab696d; stroke:none;" d="M134 56L135 57L134 56z"/>
<path style="fill:#480a12; stroke:none;" d="M136 56C137.248 56.6848 137.548 56.7488 139 57L139 65L144 65C142.494 64.317 141.685 64.1741 140 64C140.293 61.2671 140.23 58.7377 140 56L136 56z"/>
<path style="fill:#d4adac; stroke:none;" d="M147 56L148 57L147 56z"/>
<path style="fill:#ce9fa1; stroke:none;" d="M33.3333 57.6667C33.2778 57.7222 33.2222 58.7778 33.6667 58.3333C33.7222 58.2778 33.7778 57.2222 33.3333 57.6667z"/>
<path style="fill:#a18786; stroke:none;" d="M69 57L70 58L69 57z"/>
<path style="fill:#a98788; stroke:none;" d="M78 57L79 58L78 57z"/>
<path style="fill:#470708; stroke:none;" d="M79 57C80.3411 58.2741 81.4031 59.0407 83 60C81.7741 57.9653 81.2974 57.6735 79 57z"/>
<path style="fill:#e7b8b7; stroke:none;" d="M82 57L83 58L82 57z"/>
<path style="fill:#b57c8c; stroke:none;" d="M94 57L94 64C95.0595 61.4657 95.0595 59.5343 94 57z"/>
<path style="fill:#88464c; stroke:none;" d="M100 57L101 58L100 57z"/>
<path style="fill:#e8b8ba; stroke:none;" d="M101.667 57.3333C101.222 57.7778 102.278 57.7222 102.333 57.6667C102.778 57.2222 101.722 57.2777 101.667 57.3333z"/>
<path style="fill:#6a3534; stroke:none;" d="M105 57L105 64C106.059 61.4657 106.059 59.5343 105 57z"/>
<path style="fill:#f4d6db; stroke:none;" d="M110 57L110 64C111.059 61.4657 111.059 59.5343 110 57z"/>
<path style="fill:#672d29; stroke:none;" d="M129 57L129 65C130.35 62.1182 130.586 59.778 129 57z"/>
<path style="fill:#6c3a3e; stroke:none;" d="M144 57L144 65C145.161 62.2302 145.161 59.7699 144 57z"/>
<path style="fill:#906165; stroke:none;" d="M20 58L21 59L20 58z"/>
<path style="fill:#a87e86; stroke:none;" d="M53.6667 58.3333C53.2222 58.7778 54.2778 58.7222 54.3333 58.6667C54.7777 58.2223 53.7222 58.2778 53.6667 58.3333z"/>
<path style="fill:#e0b3bc; stroke:none;" d="M62 58L63 59L62 58z"/>
<path style="fill:#7f4f51; stroke:none;" d="M63.6667 58.3333C63.2222 58.7778 64.2778 58.7222 64.3333 58.6667C64.7778 58.2222 63.7222 58.2778 63.6667 58.3333z"/>
<path style="fill:#f6c4c4; stroke:none;" d="M65 58L66 59L65 58z"/>
<path style="fill:#b77a7e; stroke:none;" d="M68 58L69 59L68 58z"/>
<path style="fill:#f6bec0; stroke:none;" d="M73 58L74 59L73 58z"/>
<path style="fill:#f2b6b9; stroke:none;" d="M76 58L77 59L76 58z"/>
<path style="fill:#7f4246; stroke:none;" d="M77 58L78 59L77 58z"/>
<path style="fill:#520a0a; stroke:none;" d="M95 58L95 64L100 64L100 59C98.7346 60.8127 97.8979 61.8827 96 63C96.1742 60.7319 96.1444 59.9185 95 58z"/>
<path style="fill:#d4a2a8; stroke:none;" d="M100 58L100 64C100.951 61.7147 100.951 60.2853 100 58z"/>
<path style="fill:#43050a; stroke:none;" d="M109 58C108.582 60.6895 108.283 61.5537 106 63C107.506 63.683 108.315 63.8259 110 64C109.953 61.7472 109.874 60.0521 109 58z"/>
<path style="fill:#26090b; stroke:none;" d="M133 58C132.779 61.0065 132.545 62.3655 130 64C131.506 64.683 132.315 64.8259 134 65C133.981 62.4566 133.985 60.3316 133 58z"/>
<path style="fill:#e5cfce; stroke:none;" d="M19 59L20 60L19 59z"/>
<path style="fill:#815356; stroke:none;" d="M33 59L34 60L33 59z"/>
<path style="fill:#bf9e9f; stroke:none;" d="M60 59L61 60L60 59z"/>
<path style="fill:#ffb9bc; stroke:none;" d="M66 59L67 60L66 59z"/>
<path style="fill:#d88d91; stroke:none;" d="M67 59L68 60L67 59z"/>
<path style="fill:#d5a4a4; stroke:none;" d="M83 59L84 60L83 59z"/>
<path style="fill:#926f6e; stroke:none;" d="M19 60L20 61L19 60z"/>
<path style="fill:#340706; stroke:none;" d="M33.3333 60.6667C33.2778 60.7222 33.2222 61.7778 33.6667 61.3333C33.7222 61.2778 33.7778 60.2222 33.3333 60.6667z"/>
<path style="fill:#784544; stroke:none;" d="M49 60L50 61L49 60z"/>
<path style="fill:#966868; stroke:none;" d="M57.6667 60.3333C57.2222 60.7778 58.2778 60.7222 58.3333 60.6667C58.7778 60.2222 57.7222 60.2778 57.6667 60.3333z"/>
<path style="fill:#7b343e; stroke:none;" d="M29.3333 61.6667C29.2778 61.7222 29.2222 62.7778 29.6667 62.3333C29.7222 62.2778 29.7778 61.2222 29.3333 61.6667z"/>
<path style="fill:#3d0507; stroke:none;" d="M19 62L19 66C19.7102 64.2405 19.7102 63.7595 19 62z"/>
<path style="fill:#ad818a; stroke:none;" d="M84 62L84 65C84.6961 63.4463 84.6961 63.5537 84 62z"/>
<path style="fill:#4b0105; stroke:none;" d="M29 64L29 69C29.8299 66.9695 29.8299 66.0305 29 64z"/>
<path style="fill:#bb8b8b; stroke:none;" d="M33.3333 64.6667C33.2778 64.7222 33.2222 65.7778 33.6667 65.3333C33.7222 65.2778 33.7778 64.2222 33.3333 64.6667z"/>
<path style="fill:#540e1a; stroke:none;" d="M34 64C33.7233 67.0035 33.8349 68.3607 37 68C35.9808 66.3694 35.4737 65.12 34 64z"/>
<path style="fill:#ead9d8; stroke:none;" d="M95 64C96.769 64.7789 98.0359 64.9124 100 65C98.231 64.2211 96.9641 64.0876 95 64z"/>
<path style="fill:#e8d6d5; stroke:none;" d="M105 64C106.769 64.7789 108.036 64.9124 110 65C108.231 64.2211 106.964 64.0876 105 64z"/>
<path style="fill:#9c7f7f; stroke:none;" d="M30 65L30 68C30.6961 66.4463 30.6961 66.5537 30 65z"/>
<path style="fill:#875654; stroke:none;" d="M19 66L20 67L19 66z"/>
<path style="fill:#f4c6c9; stroke:none;" d="M83.3333 66.6667C83.2778 66.7222 83.2222 67.7778 83.6667 67.3333C83.7222 67.2778 83.7778 66.2222 83.3333 66.6667z"/>
<path style="fill:#c8979d; stroke:none;" d="M92.6667 66.3333C92.2222 66.7778 93.2778 66.7222 93.3333 66.6667C93.7778 66.2222 92.7222 66.2778 92.6667 66.3333z"/>
<path style="fill:#9a676b; stroke:none;" d="M94.6667 66.3333C94.2222 66.7778 95.2778 66.7222 95.3333 66.6667C95.7778 66.2222 94.7222 66.2778 94.6667 66.3333z"/>
<path style="fill:#6f302f; stroke:none;" d="M96 66C100.215 67.7687 105.465 67 110 67C118.345 67 126.669 67.2887 135 67C131.041 65.3389 126.26 66 122 66L96 66z"/>
<path style="fill:#8a4c4e; stroke:none;" d="M135 66C136.506 66.683 137.315 66.8259 139 67C137.494 66.317 136.685 66.1741 135 66z"/>
<path style="fill:#ae5d68; stroke:none;" d="M139 66C140.769 66.779 142.036 66.9124 144 67C142.231 66.2211 140.964 66.0876 139 66z"/>
<path style="fill:#936869; stroke:none;" d="M144 66C146.332 66.9845 148.457 66.9813 151 67C148.668 66.0155 146.543 66.0187 144 66z"/>
<path style="fill:#5d1923; stroke:none;" d="M145 67C146.312 68.4591 147.231 69.1571 149 70L148 68L153 69C152.997 73.1007 152.749 76.964 152 81C154.742 78.2351 155.934 70.7818 152.397 67.7731C150.554 66.2063 147.207 66.9313 145 67z"/>
<path style="fill:#9f727a; stroke:none;" d="M152 66L153 67L152 66z"/>
<path style="fill:#994246; stroke:none;" d="M20.3333 67.6667C20.2778 67.7222 20.2222 68.7778 20.6667 68.3333C20.7222 68.2778 20.7778 67.2222 20.3333 67.6667z"/>
<path style="fill:#cd9c9f; stroke:none;" d="M33 67L34 68L33 67z"/>
<path style="fill:#925a62; stroke:none;" d="M89 67L90 68L89 67z"/>
<path style="fill:#4a0a10; stroke:none;" d="M90 67C92.0521 67.8742 93.7472 67.9528 96 68C93.9479 67.1257 92.2528 67.0472 90 67z"/>
<path style="fill:#70131b; stroke:none;" d="M87 69C90.0955 70.2967 93.1274 69.6798 96.4244 69.9468C105.278 70.6638 114.105 69.898 123 70.0039C126.434 70.0447 134.285 69.8676 135.654 74.0532C137.271 78.996 128.578 78.821 126 78.7446C117.31 78.487 108.68 79.0266 100 78.9992C96.8287 78.9892 92.1239 77.7201 89.2323 79.2685C84.1744 81.9768 85.9554 94.8652 92.044 95.196C96.8544 95.4573 101.227 94.8636 106 96L106 94C114.002 96.525 124.142 90.8044 131 96C134.815 95.1705 138.153 95.699 142 96C141.519 98.2007 141.519 98.7993 142 101C138.964 102.079 136.175 103.396 133 104C138.391 108.084 147.564 105.004 154 105C154 103.19 153.563 100.748 154 99C154.305 97.7814 155.948 95.7371 155 94C153.143 90.5952 146.345 92 143 92C140.804 92 138.626 91.1355 137 91C134.938 90.8281 132.674 92.5943 130 92C129.12 91.8044 127.847 90.3766 127 90C125.252 89.2233 124.551 91.1292 123 91C121.508 90.8757 119.696 88.8587 118 89C116.767 89.1028 114.241 90.6898 113 91C108.985 92.0036 107.021 90.0205 105 88C104.097 87.0971 101.509 85.485 103 83C103.713 81.8123 105.853 81.3277 107 81C108.773 80.4933 112.653 79.9918 116 82L115 83C123.513 81.4196 132.365 81.915 141 82.0039C143.915 82.0339 148.772 83.2982 151.142 81.1026C153.977 78.4762 153 72.464 153 69L148 68L149 70C142.505 65.9908 135.771 67.1512 128.424 67.1512C114.986 67.1512 100.028 65.1132 87 69z"/>
<path style="fill:#edbabd; stroke:none;" d="M153 67L154 68L153 67z"/>
<path style="fill:#663238; stroke:none;" d="M34 69C35.5061 69.683 36.3148 69.8259 38 70C36.2762 68.9445 36.0793 68.9642 34 69z"/>
<path style="fill:#c98690; stroke:none;" d="M83 68L83 84C84.8123 79.6811 84.8123 72.3189 83 68z"/>
<path style="fill:#95757a; stroke:none;" d="M87 68L88 69L87 68z"/>
<path style="fill:#8d5d5d; stroke:none;" d="M154.333 68.6667C154.278 68.7223 154.222 69.7778 154.667 69.3333C154.722 69.2778 154.778 68.2222 154.333 68.6667z"/>
<path style="fill:#ddafab; stroke:none;" d="M19 69L20 70L19 69z"/>
<path style="fill:#b06973; stroke:none;" d="M38 69L39 70L38 69z"/>
<path style="fill:#b3777e; stroke:none;" d="M43.6667 69.3333C43.2222 69.7778 44.2778 69.7222 44.3333 69.6667C44.7778 69.2222 43.7222 69.2778 43.6667 69.3333z"/>
<path style="fill:#68212b; stroke:none;" d="M45 69C48.4324 70.4403 52.2998 70 56 70C52.5676 68.5597 48.7002 69 45 69z"/>
<path style="fill:#6c2f33; stroke:none;" d="M61 69C63.3316 69.9845 65.4566 69.9813 68 70C65.6684 69.0155 63.5433 69.0187 61 69z"/>
<path style="fill:#471712; stroke:none;" d="M95 69C95.9802 70.7833 95.9076 70.5943 98 71C96.8606 69.9846 96.3884 69.6913 95 69z"/>
<path style="fill:#350500; stroke:none;" d="M19 70L19 75C19.9241 73.3519 20.4494 71.8251 21 70L19 70z"/>
<path style="fill:#75363b; stroke:none;" d="M29 70L29 75C29.8299 72.9695 29.8299 72.0305 29 70z"/>
<path style="fill:#c9aba9; stroke:none;" d="M40 70L41 71L40 70z"/>
<path style="fill:#c6b0ad; stroke:none;" d="M57.6667 70.3333C57.2222 70.7778 58.2778 70.7222 58.3333 70.6667C58.7778 70.2222 57.7222 70.2778 57.6667 70.3333z"/>
<path style="fill:#bd8e93; stroke:none;" d="M69 70L70 71L69 70z"/>
<path style="fill:#b6a2a3; stroke:none;" d="M87 70L88 71L87 70z"/>
<path style="fill:#805058; stroke:none;" d="M88 70L89 71L88 70z"/>
<path style="fill:#400508; stroke:none;" d="M89 70C90.506 70.683 91.3148 70.8259 93 71C91.4939 70.317 90.6852 70.1741 89 70z"/>
<path style="fill:#9b6964; stroke:none;" d="M93.6667 70.3333C93.2222 70.7778 94.2778 70.7222 94.3333 70.6667C94.7778 70.2222 93.7222 70.2778 93.6667 70.3333z"/>
<path style="fill:#794240; stroke:none;" d="M98.6667 70.3333C98.2222 70.7778 99.2778 70.7222 99.3333 70.6667C99.7778 70.2222 98.7222 70.2778 98.6667 70.3333z"/>
<path style="fill:#8e5653; stroke:none;" d="M102.667 70.3333C102.222 70.7778 103.278 70.7222 103.333 70.6667C103.778 70.2222 102.722 70.2778 102.667 70.3333z"/>
<path style="fill:#360200; stroke:none;" d="M104.667 70.3333C104.222 70.7778 105.278 70.7222 105.333 70.6667C105.778 70.2222 104.722 70.2778 104.667 70.3333z"/>
<path style="fill:#885754; stroke:none;" d="M107 70C108.769 70.7789 110.036 70.9124 112 71C110.231 70.2211 108.964 70.0876 107 70z"/>
<path style="fill:#74454b; stroke:none;" d="M112 70C115.959 71.6611 120.737 71 125 71C121.041 69.3389 116.263 70 112 70z"/>
<path style="fill:#e0b8b8; stroke:none;" d="M127 70L128 71L127 70z"/>
<path style="fill:#75443e; stroke:none;" d="M128.667 70.3333C128.222 70.7778 129.278 70.7222 129.333 70.6667C129.778 70.2222 128.722 70.2778 128.667 70.3333z"/>
<path style="fill:#ab7e7c; stroke:none;" d="M154.333 70.6667C154.278 70.7223 154.222 71.7777 154.667 71.3333C154.722 71.2778 154.778 70.2222 154.333 70.6667z"/>
<path style="fill:#ecc7c6; stroke:none;" d="M89.6667 71.3333C89.2222 71.7777 90.2778 71.7222 90.3333 71.6667C90.7778 71.2222 89.7222 71.2778 89.6667 71.3333z"/>
<path style="fill:#e4c4c1; stroke:none;" d="M95 71C96.2484 71.6848 96.5484 71.7488 98 72C96.7517 71.3152 96.4516 71.2512 95 71z"/>
<path style="fill:#efd1cc; stroke:none;" d="M100.667 71.3333C100.222 71.7778 101.278 71.7222 101.333 71.6667C101.778 71.2222 100.722 71.2778 100.667 71.3333z"/>
<path style="fill:#e7bebe; stroke:none;" d="M131 71L132 72L131 71z"/>
<path style="fill:#93585b; stroke:none;" d="M132 71C133.248 71.6848 133.548 71.7488 135 72C133.752 71.3152 133.452 71.2512 132 71z"/>
<path style="fill:#ffc7cd; stroke:none;" d="M135 72L136 73L135 72z"/>
<path style="fill:#480b14; stroke:none;" d="M154 72L154 76C154.71 74.2405 154.71 73.7595 154 72z"/>
<path style="fill:#985357; stroke:none;" d="M72.3333 73.6667C72.2778 73.7222 72.2222 74.7778 72.6667 74.3333C72.7222 74.2778 72.7778 73.2222 72.3333 73.6667z"/>
<path style="fill:#6d3f44; stroke:none;" d="M136 73L136 77C136.71 75.2405 136.71 74.7595 136 73z"/>
<path style="fill:#a96f73; stroke:none;" d="M29 75L30 76L29 75z"/>
<path style="fill:#cda5aa; stroke:none;" d="M155 75L156 76L155 75z"/>
<path style="fill:#a97571; stroke:none;" d="M19 76L19 80C19.7102 78.2405 19.7102 77.7595 19 76z"/>
<path style="fill:#ffdbdd; stroke:none;" d="M29 76L29 79C29.6961 77.4463 29.6961 77.5537 29 76z"/>
<path style="fill:#5c0907; stroke:none;" d="M20 77L20 81C20.7102 79.2405 20.7102 78.7595 20 77z"/>
<path style="fill:#f2dade; stroke:none;" d="M116 77C117.506 77.683 118.315 77.8259 120 78C118.494 77.317 117.685 77.1741 116 77z"/>
<path style="fill:#efc4cd; stroke:none;" d="M88 78L89 79L88 78z"/>
<path style="fill:#c38690; stroke:none;" d="M89 78L90 79L89 78z"/>
<path style="fill:#79373b; stroke:none;" d="M92 78C96.974 80.0872 103.638 79 109 79C104.026 76.9128 97.362 78 92 78z"/>
<path style="fill:#490201; stroke:none;" d="M112 78C115.697 79.5515 120.017 79 124 79C120.303 77.4485 115.983 78 112 78z"/>
<path style="fill:#8b4a46; stroke:none;" d="M125 78C126.248 78.6848 126.548 78.7488 128 79C126.752 78.3152 126.452 78.2512 125 78z"/>
<path style="fill:#cb9692; stroke:none;" d="M128 78C129.769 78.7789 131.036 78.9124 133 79C131.231 78.2211 129.964 78.0876 128 78z"/>
<path style="fill:#8f5351; stroke:none;" d="M133 78L134 79L133 78z"/>
<path style="fill:#d0979c; stroke:none;" d="M29 79L30 80L29 79z"/>
<path style="fill:#ba989c; stroke:none;" d="M87 79L88 80L87 79z"/>
<path style="fill:#825856; stroke:none;" d="M154 79L155 80L154 79z"/>
<path style="fill:#803f47; stroke:none;" d="M19 80L20 81L19 80z"/>
<path style="fill:#57090e; stroke:none;" d="M105 81C108.432 82.4403 112.3 82 116 82C112.428 80.312 108.854 80.3449 105 81z"/>
<path style="fill:#875357; stroke:none;" d="M153 80L154 81L153 80z"/>
<path style="fill:#4b0c14; stroke:none;" d="M19.3333 81.6667C19.2778 81.7222 19.2222 82.7778 19.6667 82.3333C19.7222 82.2778 19.7778 81.2222 19.3333 81.6667z"/>
<path style="fill:#8f6060; stroke:none;" d="M69 81L70 82L69 81z"/>
<path style="fill:#a56a6e; stroke:none;" d="M86 81L87 82L86 81z"/>
<path style="fill:#8d5e62; stroke:none;" d="M152 81L153 82L152 81z"/>
<path style="fill:#793843; stroke:none;" d="M34.6667 82.3333C34.2222 82.7778 35.2778 82.7222 35.3333 82.6667C35.7778 82.2222 34.7222 82.2778 34.6667 82.3333z"/>
<path style="fill:#701319; stroke:none;" d="M34 83C34.5771 89.035 32.2076 97.0527 34.9738 102.575C40.4391 113.485 57.0119 108.043 67 109.286C74.0282 110.161 75.1817 113.102 80 117C78.478 119.608 77.1607 122.213 76 125C72.4723 123.806 67.7619 121.888 65 125C60.4532 121.643 56.2109 121.617 51 120C48.6349 121.592 45.9887 120.719 44 123L39 121C36.2515 127.368 40.4119 127.988 46 128C52.2258 128.013 61.8793 126.121 67 130C73.2456 128.712 79.6211 128.001 86 128C86 121.268 85.7669 114.642 87 108C85.085 106.723 85.915 106.723 84 108C83.2321 106.686 83.3141 106.768 82 106C82.5208 103.923 83.7889 99.5169 81.3711 98.0918C79.3113 96.8777 76.2295 98.4574 74 98.4352C66.6931 98.3623 59.3265 100.276 52 99.8611C48.979 99.69 43.6859 99.5095 42.7515 95.8079C41.7988 92.0333 46.1521 89.6498 49.0008 88.554C55.5105 86.05 68.1398 90.2846 70 82C58.5687 82.4126 45.0477 80.46 34 83z"/>
<path style="fill:#340003; stroke:none;" d="M41 82C42.5061 82.683 43.3148 82.8259 45 83C43.494 82.317 42.6852 82.1741 41 82z"/>
<path style="fill:#ab6872; stroke:none;" d="M47 82C48.769 82.7789 50.0359 82.9124 52 83C50.231 82.2211 48.9641 82.0876 47 82z"/>
<path style="fill:#43010b; stroke:none;" d="M53.6667 82.3333C53.2222 82.7778 54.2778 82.7222 54.3333 82.6667C54.7778 82.2222 53.7222 82.2778 53.6667 82.3333z"/>
<path style="fill:#a15e67; stroke:none;" d="M56.6667 82.3333C56.2222 82.7778 57.2778 82.7222 57.3333 82.6667C57.7778 82.2222 56.7222 82.2778 56.6667 82.3333z"/>
<path style="fill:#bd7a83; stroke:none;" d="M58.6667 82.3333C58.2222 82.7778 59.2778 82.7222 59.3333 82.6667C59.7778 82.2222 58.7222 82.2778 58.6667 82.3333z"/>
<path style="fill:#9d6467; stroke:none;" d="M64.6667 82.3333C64.2222 82.7778 65.2778 82.7222 65.3333 82.6667C65.7778 82.2222 64.7222 82.2778 64.6667 82.3333z"/>
<path style="fill:#571018; stroke:none;" d="M103 82L103 88C104.063 86.031 104.532 84.2016 105 82L103 82z"/>
<path style="fill:#b28680; stroke:none;" d="M105 82L106 83L105 82z"/>
<path style="fill:#ffeee6; stroke:none;" d="M106 82C107.506 82.683 108.315 82.8259 110 83C108.494 82.317 107.685 82.1741 106 82z"/>
<path style="fill:#b09393; stroke:none;" d="M110.667 82.3333C110.222 82.7778 111.278 82.7222 111.333 82.6667C111.778 82.2222 110.722 82.2778 110.667 82.3333z"/>
<path style="fill:#9a6868; stroke:none;" d="M112 82C113.248 82.6848 113.548 82.7488 115 83C113.752 82.3152 113.452 82.2512 112 82z"/>
<path style="fill:#592827; stroke:none;" d="M117 82C119.052 82.8742 120.747 82.9528 123 83C120.948 82.1258 119.253 82.0472 117 82z"/>
<path style="fill:#9b6768; stroke:none;" d="M123 82C125.89 83.2129 128.874 82.9983 132 83C129.11 81.787 126.126 82.0017 123 82z"/>
<path style="fill:#632a2d; stroke:none;" d="M132 82C133.506 82.683 134.315 82.8259 136 83C134.494 82.317 133.685 82.1741 132 82z"/>
<path style="fill:#3c0906; stroke:none;" d="M136 82C139.697 83.5515 144.017 83 148 83C144.303 81.4485 139.983 82 136 82z"/>
<path style="fill:#966b6c; stroke:none;" d="M149 82C150.248 82.6848 150.548 82.7488 152 83C150.752 82.3152 150.452 82.2512 149 82z"/>
<path style="fill:#e4cccb; stroke:none;" d="M152 82L153 83L152 82z"/>
<path style="fill:#794247; stroke:none;" d="M19 83L20 84L19 83z"/>
<path style="fill:#995d64; stroke:none;" d="M29 83L30 84L29 83z"/>
<path style="fill:#50060a; stroke:none;" d="M82 83C77.8994 87.5515 74.6167 86.3908 69 86.5941C62.9901 86.8117 57.0232 87 51 87C59.4556 90.5481 72.8712 88.0242 82 88C82.3013 86.0686 82.4675 84.8465 82 83z"/>
<path style="fill:#f1d2cf; stroke:none;" d="M140 83C142.052 83.8743 143.747 83.9528 146 84C143.948 83.1257 142.253 83.0472 140 83z"/>
<path style="fill:#dcadaf; stroke:none;" d="M19 84L20 85L19 84z"/>
<path style="fill:#4b030b; stroke:none;" d="M28 84L28 91C29.0595 88.4657 29.0595 86.5343 28 84z"/>
<path style="fill:#e1acb1; stroke:none;" d="M29 84L30 85L29 84z"/>
<path style="fill:#430008; stroke:none;" d="M86 84C86.0004 87.8007 85.9191 91.3433 87 95C87.8089 91.6325 87.3453 87.1987 86 84z"/>
<path style="fill:#aa7278; stroke:none;" d="M104 84L104 88C104.71 86.2405 104.71 85.7595 104 84z"/>
<path style="fill:#bd707a; stroke:none;" d="M20 85L21 86L20 85z"/>
<path style="fill:#580a0c; stroke:none;" d="M33 85C33 92.8044 30.6233 103.202 38 108C37.1783 105.075 35.0398 102.827 34.3133 99.9105C33.1478 95.2322 34.1958 89.6652 35 85L33 85z"/>
<path style="fill:#b28385; stroke:none;" d="M82 85L83 86L82 85z"/>
<path style="fill:#914750; stroke:none;" d="M20 86L21 87L20 86z"/>
<path style="fill:#c08c8a; stroke:none;" d="M32 86L32 103C33.8826 98.5135 33.8826 90.4865 32 86z"/>
<path style="fill:#400005; stroke:none;" d="M20 87C20.4057 89.0924 20.2167 89.0198 22 90C21.3087 88.6116 21.0154 88.1394 20 87z"/>
<path style="fill:#421616; stroke:none;" d="M49.6667 88.3333C49.2222 88.7778 50.2778 88.7222 50.3333 88.6667C50.7778 88.2222 49.7222 88.2778 49.6667 88.3333z"/>
<path style="fill:#7c5050; stroke:none;" d="M51 88L52 89L51 88z"/>
<path style="fill:#d0aba9; stroke:none;" d="M52 88C53.769 88.7789 55.0359 88.9124 57 89C55.231 88.2211 53.9641 88.0876 52 88z"/>
<path style="fill:#ffe1df; stroke:none;" d="M57 88C59.3315 88.9845 61.4567 88.9813 64 89C61.6684 88.0155 59.5433 88.0187 57 88z"/>
<path style="fill:#c5a8a2; stroke:none;" d="M64 88L65 89L64 88z"/>
<path style="fill:#6f4f4a; stroke:none;" d="M65.6667 88.3333C65.2222 88.7778 66.2778 88.7222 66.3333 88.6667C66.7778 88.2222 65.7222 88.2778 65.6667 88.3333z"/>
<path style="fill:#a78681; stroke:none;" d="M67 88C68.769 88.7789 70.0359 88.9124 72 89C70.231 88.2211 68.9641 88.0876 67 88z"/>
<path style="fill:#865a5b; stroke:none;" d="M73 88L74 89L73 88z"/>
<path style="fill:#be9092; stroke:none;" d="M74.6667 88.3333C74.2222 88.7778 75.2778 88.7222 75.3333 88.6667C75.7778 88.2222 74.7222 88.2778 74.6667 88.3333z"/>
<path style="fill:#8c5e5f; stroke:none;" d="M76.6667 88.3333C76.2222 88.7778 77.2778 88.7222 77.3333 88.6667C77.7778 88.2222 76.7222 88.2778 76.6667 88.3333z"/>
<path style="fill:#d09da1; stroke:none;" d="M78 88L79 89L78 88z"/>
<path style="fill:#ac797d; stroke:none;" d="M105 88L106 89L105 88z"/>
<path style="fill:#9e6e6f; stroke:none;" d="M45 89L46 90L45 89z"/>
<path style="fill:#8a4449; stroke:none;" d="M105 89L106 90L105 89z"/>
<path style="fill:#ffdcdd; stroke:none;" d="M106.667 89.3333C106.222 89.7778 107.278 89.7222 107.333 89.6667C107.778 89.2222 106.722 89.2778 106.667 89.3333z"/>
<path style="fill:#a18b85; stroke:none;" d="M117 89L118 90L117 89z"/>
<path style="fill:#aa9590; stroke:none;" d="M119 89L120 90L119 89z"/>
<path style="fill:#bcaca6; stroke:none;" d="M127.667 89.3333C127.222 89.7778 128.278 89.7222 128.333 89.6667C128.778 89.2223 127.722 89.2778 127.667 89.3333z"/>
<path style="fill:#7e363a; stroke:none;" d="M20.6667 90.3333C20.2222 90.7778 21.2778 90.7222 21.3333 90.6667C21.7778 90.2222 20.7222 90.2778 20.6667 90.3333z"/>
<path style="fill:#d7bcb7; stroke:none;" d="M44 90L45 91L44 90z"/>
<path style="fill:#4e0006; stroke:none;" d="M107 90C109.332 90.9845 111.457 90.9813 114 91C111.668 90.0155 109.543 90.0187 107 90z"/>
<path style="fill:#b1656c; stroke:none;" d="M122 90C123.248 90.6848 123.548 90.7488 125 91C123.752 90.3152 123.452 90.2512 122 90z"/>
<path style="fill:#330000; stroke:none;" d="M127.667 90.3333C127.222 90.7778 128.278 90.7222 128.333 90.6667C128.778 90.2223 127.722 90.2778 127.667 90.3333z"/>
<path style="fill:#590c13; stroke:none;" d="M129 90C130.926 92.2077 133.125 91.9682 136 92C133.767 90.9905 131.396 90.5948 129 90z"/>
<path style="fill:#ac767a; stroke:none;" d="M130 90C132.89 91.2129 135.874 90.9983 139 91C136.11 89.787 133.126 90.0017 130 90z"/>
<path style="fill:#c99296; stroke:none;" d="M139.667 90.3333C139.222 90.7777 140.278 90.7222 140.333 90.6667C140.778 90.2222 139.722 90.2778 139.667 90.3333z"/>
<path style="fill:#996568; stroke:none;" d="M141 90L142 91L141 90z"/>
<path style="fill:#591417; stroke:none;" d="M137 91C140.88 92.6282 149.069 93.3545 152 90C147.155 91.0541 141.97 90.6215 137 91z"/>
<path style="fill:#9f7475; stroke:none;" d="M145 90L146 91L145 90z"/>
<path style="fill:#d5a4a4; stroke:none;" d="M146 90C147.506 90.683 148.315 90.8259 150 91C148.494 90.317 147.685 90.1741 146 90z"/>
<path style="fill:#9f7472; stroke:none;" d="M150 90L151 91L150 90z"/>
<path style="fill:#efc5c5; stroke:none;" d="M20 91L21 92L20 91z"/>
<path style="fill:#d9acad; stroke:none;" d="M43 91L44 92L43 91z"/>
<path style="fill:#a27571; stroke:none;" d="M152 91L153 92L152 91z"/>
<path style="fill:#8c514f; stroke:none;" d="M21 92L22 93L21 92z"/>
<path style="fill:#400007; stroke:none;" d="M42 92L42 98C42.9511 95.7147 42.9511 94.2853 42 92z"/>
<path style="fill:#905559; stroke:none;" d="M153 92L154 93L153 92z"/>
<path style="fill:#f9c2bf; stroke:none;" d="M21 93L22 94L21 93z"/>
<path style="fill:#540b0e; stroke:none;" d="M117 94C121.217 95.7693 126.459 95 131 95C126.93 93.2915 121.34 93.3093 117 94z"/>
<path style="fill:#d9a6a9; stroke:none;" d="M154 93L155 94L154 93z"/>
<path style="fill:#deb0b8; stroke:none;" d="M29.3333 94.6667C29.2778 94.7222 29.2222 95.7778 29.6667 95.3333C29.7222 95.2778 29.7778 94.2222 29.3333 94.6667z"/>
<path style="fill:#ca979b; stroke:none;" d="M86 94L87 95L86 94z"/>
<path style="fill:#54060a; stroke:none;" d="M106 94C107.926 96.2077 110.125 95.9682 113 96C110.767 94.9905 108.396 94.5948 106 94z"/>
<path style="fill:#d4afaf; stroke:none;" d="M20 95L21 96L20 95z"/>
<path style="fill:#e7a7a9; stroke:none;" d="M88 95L89 96L88 95z"/>
<path style="fill:#a96968; stroke:none;" d="M89 95L90 96L89 95z"/>
<path style="fill:#5d0213; stroke:none;" d="M91 95C95.2165 96.7693 100.459 96 105 96C100.783 94.2307 95.5411 95 91 95z"/>
<path style="fill:#9d6265; stroke:none;" d="M115 95C116.248 95.6848 116.548 95.7488 118 96C116.752 95.3152 116.452 95.2512 115 95z"/>
<path style="fill:#82484b; stroke:none;" d="M118.667 95.3333C118.222 95.7778 119.278 95.7222 119.333 95.6667C119.778 95.2222 118.722 95.2778 118.667 95.3333z"/>
<path style="fill:#b0797b; stroke:none;" d="M120 95L121 96L120 95z"/>
<path style="fill:#e6afb1; stroke:none;" d="M121.667 95.3333C121.222 95.7778 122.278 95.7222 122.333 95.6667C122.778 95.2222 121.722 95.2778 121.667 95.3333z"/>
<path style="fill:#c79091; stroke:none;" d="M123 95C125.613 96.0977 128.165 95.9928 131 96C128.387 94.9023 125.835 95.0072 123 95z"/>
<path style="fill:#4a0205; stroke:none;" d="M132 95C134.052 95.8743 135.747 95.9528 138 96C135.948 95.1257 134.253 95.0472 132 95z"/>
<path style="fill:#763940; stroke:none;" d="M28.3333 96.6667C28.2778 96.7222 28.2222 97.7778 28.6667 97.3333C28.7222 97.2778 28.7778 96.2222 28.3333 96.6667z"/>
<path style="fill:#dbc9c8; stroke:none;" d="M91 96L92 97L91 96z"/>
<path style="fill:#b49697; stroke:none;" d="M92.6667 96.3333C92.2222 96.7778 93.2778 96.7222 93.3333 96.6667C93.7778 96.2222 92.7222 96.2778 92.6667 96.3333z"/>
<path style="fill:#dcb1b8; stroke:none;" d="M94 96C96.0521 96.8742 97.7472 96.9528 100 97C97.9479 96.1258 96.2528 96.0472 94 96z"/>
<path style="fill:#936a70; stroke:none;" d="M104 96C105.248 96.6848 105.548 96.7488 107 97C105.752 96.3152 105.452 96.2512 104 96z"/>
<path style="fill:#dab1ba; stroke:none;" d="M107 96C108.248 96.6848 108.548 96.7488 110 97C108.752 96.3152 108.452 96.2512 107 96z"/>
<path style="fill:#dbc0c5; stroke:none;" d="M133 96C134.248 96.6848 134.548 96.7488 136 97C134.752 96.3152 134.452 96.2512 133 96z"/>
<path style="fill:#a16d73; stroke:none;" d="M137 96L138 97L137 96z"/>
<path style="fill:#641a21; stroke:none;" d="M138 96C139.253 104.5 127.875 103.193 122.17 104.258C119.705 104.719 117.509 105.681 115 106C119.945 109.192 128.309 106.244 134 106L133 104C136.391 103.634 138.963 102.528 142 101C141.798 99.1501 141.798 97.8499 142 96L138 96z"/>
<path style="fill:#a78484; stroke:none;" d="M68 97L69 98L68 97z"/>
<path style="fill:#7d5c5a; stroke:none;" d="M70 97L71 98L70 97z"/>
<path style="fill:#e6cbc6; stroke:none;" d="M71 97L72 98L71 97z"/>
<path style="fill:#876865; stroke:none;" d="M78 97L79 98L78 97z"/>
<path style="fill:#cc9da0; stroke:none;" d="M50 98L51 99L50 98z"/>
<path style="fill:#92696a; stroke:none;" d="M51.6667 98.3333C51.2222 98.7778 52.2778 98.7222 52.3333 98.6667C52.7778 98.2222 51.7222 98.2778 51.6667 98.3333z"/>
<path style="fill:#c09b9b; stroke:none;" d="M53 98L54 99L53 98z"/>
<path style="fill:#c79b9d; stroke:none;" d="M60 98L61 99L60 98z"/>
<path style="fill:#643437; stroke:none;" d="M61 98C62.2484 98.6848 62.5484 98.7488 64 99C62.7517 98.3152 62.4516 98.2512 61 98z"/>
<path style="fill:#d6b0b0; stroke:none;" d="M64 98L65 99L64 98z"/>
<path style="fill:#783e43; stroke:none;" d="M67 98L68 99L67 98z"/>
<path style="fill:#b3767d; stroke:none;" d="M72 98L73 99L72 98z"/>
<path style="fill:#944a54; stroke:none;" d="M76 98L77 99L76 98z"/>
<path style="fill:#e9b1b1; stroke:none;" d="M139.333 98.6667C139.278 98.7222 139.222 99.7778 139.667 99.3333C139.722 99.2778 139.778 98.2222 139.333 98.6667z"/>
<path style="fill:#420b0e; stroke:none;" d="M154 98L154 104C154.951 101.715 154.951 100.285 154 98z"/>
<path style="fill:#4c121a; stroke:none;" d="M28 99L28 104C28.8299 101.97 28.8299 101.03 28 99z"/>
<path style="fill:#c6a1a6; stroke:none;" d="M29 99L29 102C29.6961 100.446 29.6961 100.554 29 99z"/>
<path style="fill:#f1cac9; stroke:none;" d="M45 99L46 100L45 99z"/>
<path style="fill:#c99397; stroke:none;" d="M47 99L48 100L47 99z"/>
<path style="fill:#460c0a; stroke:none;" d="M49 99C50.7691 99.7789 52.0359 99.9124 54 100C52.231 99.2211 50.9641 99.0876 49 99z"/>
<path style="fill:#a66c6b; stroke:none;" d="M54 99L55 100L54 99z"/>
<path style="fill:#e4a7a6; stroke:none;" d="M57 99L58 100L57 99z"/>
<path style="fill:#8a4d4c; stroke:none;" d="M58 99L59 100L58 99z"/>
<path style="fill:#753238; stroke:none;" d="M65.6667 99.3333C65.2222 99.7778 66.2778 99.7222 66.3333 99.6667C66.7778 99.2222 65.7222 99.2778 65.6667 99.3333z"/>
<path style="fill:#a17e7d; stroke:none;" d="M83 99L84 100L83 99z"/>
<path style="fill:#ddb4b4; stroke:none;" d="M155 99L155 102C155.696 100.446 155.696 100.554 155 99z"/>
<path style="fill:#dabab9; stroke:none;" d="M19 100L19 103C19.6961 101.446 19.6961 101.554 19 100z"/>
<path style="fill:#520f15; stroke:none;" d="M83 100L82 104C83.6556 102.596 83.7511 102.046 83 100z"/>
<path style="fill:#b08082; stroke:none;" d="M84.3333 101.667C84.2778 101.722 84.2222 102.778 84.6667 102.333C84.7222 102.278 84.7778 101.222 84.3333 101.667z"/>
<path style="fill:#e2c2c3; stroke:none;" d="M136 101L137 102L136 101z"/>
<path style="fill:#7a5252; stroke:none;" d="M137 101L138 102L137 101z"/>
<path style="fill:#ce9da4; stroke:none;" d="M133 102L134 103L133 102z"/>
<path style="fill:#8e575d; stroke:none;" d="M134 102L135 103L134 102z"/>
<path style="fill:#efbdc1; stroke:none;" d="M32 103L33 104L32 103z"/>
<path style="fill:#dfabac; stroke:none;" d="M84 103L85 104L84 103z"/>
<path style="fill:#ddb2b4; stroke:none;" d="M111 103L112 104L111 103z"/>
<path style="fill:#815956; stroke:none;" d="M112.667 103.333C112.222 103.778 113.278 103.722 113.333 103.667C113.778 103.222 112.722 103.278 112.667 103.333z"/>
<path style="fill:#721319; stroke:none;" d="M107 111C104.071 111.531 102.573 113.535 100 115C98.7204 125.116 97.7194 137.941 88.6998 144.437C83.8453 147.933 77.6021 146.242 72 146.579C64.9212 147.006 58.9093 145.334 52 145.13C46.0586 144.954 39.9834 146.91 34.0039 146.197C30.7827 145.813 28.2664 143.508 25 143L25 138C16.8331 142.282 24.6112 150.236 31.0039 151.157C38.9292 152.298 47.952 150.905 56 151.004C60.118 151.054 63.9517 152.547 68 152.646C74.2128 152.798 79.7841 151.52 86 153C89.3391 150.093 94.4271 150.601 97.4823 147.486C100.334 144.579 98.9221 140.59 99.517 137.015C100.853 128.984 106.874 122.462 106 114C108.849 112.425 110.514 111.251 111 108L116 109C116 107.203 115.986 107.479 115 106L120 106L120 103C114.16 103.173 109.073 105.23 107 111z"/>
<path style="fill:#70363b; stroke:none;" d="M120 103C123.163 104.327 126.586 104 130 104C126.837 102.673 123.414 103 120 103z"/>
<path style="fill:#984d56; stroke:none;" d="M20.3333 104.667C20.2778 104.722 20.2222 105.778 20.6667 105.333C20.7222 105.278 20.7778 104.222 20.3333 104.667z"/>
<path style="fill:#4f060f; stroke:none;" d="M27 104L27 114C28.3457 110.793 28.3457 107.207 27 104z"/>
<path style="fill:#cea7a7; stroke:none;" d="M28.3333 104.667C28.2778 104.722 28.2222 105.778 28.6667 105.333C28.7222 105.278 28.7778 104.222 28.3333 104.667z"/>
<path style="fill:#894e54; stroke:none;" d="M33 104L34 105L33 104z"/>
<path style="fill:#ad5960; stroke:none;" d="M83 104L84 105L83 104z"/>
<path style="fill:#9e696e; stroke:none;" d="M109 104L110 105L109 104z"/>
<path style="fill:#5c121e; stroke:none;" d="M100 115C102.695 114.066 104.302 111.836 107 111C108.792 107.73 110.472 106.226 114 105C107.627 102.815 102.216 109.781 100 115z"/>
<path style="fill:#a17275; stroke:none;" d="M154 104L155 105L154 104z"/>
<path style="fill:#b68a8b; stroke:none;" d="M33 105L34 106L33 105z"/>
<path style="fill:#4b1110; stroke:none;" d="M82 105L84 108C85.1178 105.86 84.2508 105.473 82 105z"/>
<path style="fill:#735652; stroke:none;" d="M85 105L86 106L85 105z"/>
<path style="fill:#d5b0b0; stroke:none;" d="M107 105L108 106L107 105z"/>
<path style="fill:#430f0b; stroke:none;" d="M136 106C141.193 108.178 147.485 106.046 153 106C147.807 103.822 141.515 105.954 136 106z"/>
<path style="fill:#a07677; stroke:none;" d="M153 105L154 106L153 105z"/>
<path style="fill:#af8885; stroke:none;" d="M85 106L86 107L85 106z"/>
<path style="fill:#8d6565; stroke:none;" d="M106 106L107 107L106 106z"/>
<path style="fill:#682d30; stroke:none;" d="M128 106C130.613 107.098 133.165 106.993 136 107C133.387 105.902 130.835 106.007 128 106z"/>
<path style="fill:#976a6b; stroke:none;" d="M145 106C146.769 106.779 148.036 106.912 150 107C148.231 106.221 146.964 106.088 145 106z"/>
<path style="fill:#debab8; stroke:none;" d="M150.667 106.333C150.222 106.778 151.278 106.722 151.333 106.667C151.778 106.222 150.722 106.278 150.667 106.333z"/>
<path style="fill:#d39aa1; stroke:none;" d="M36 107L37 108L36 107z"/>
<path style="fill:#b87e80; stroke:none;" d="M118 107L119 108L118 107z"/>
<path style="fill:#f0bbbe; stroke:none;" d="M119 107L120 108L119 107z"/>
<path style="fill:#8d545a; stroke:none;" d="M19 108L19 111C19.6961 109.446 19.6961 109.554 19 108z"/>
<path style="fill:#a6777c; stroke:none;" d="M37.3333 108.667C37.2778 108.722 37.2222 109.778 37.6667 109.333C37.7222 109.278 37.7778 108.222 37.3333 108.667z"/>
<path style="fill:#5d0b11; stroke:none;" d="M38 108C40.2757 110.604 43.6832 109.999 47 110L69 110C59.867 106.168 47.7676 110.325 38 108z"/>
<path style="fill:#dcb3b6; stroke:none;" d="M103 108L104 109L103 108z"/>
<path style="fill:#5c1016; stroke:none;" d="M111 108C110.079 111.63 106.844 113.023 107 117C110.081 114.333 112.672 111.343 115 108L111 108z"/>
<path style="fill:#ebbcbd; stroke:none;" d="M116 108L117 109L116 108z"/>
<path style="fill:#b98d8f; stroke:none;" d="M114 109L115 110L114 109z"/>
<path style="fill:#dbc1c4; stroke:none;" d="M37 110L38 111L37 110z"/>
<path style="fill:#ad8689; stroke:none;" d="M38 110C46.3668 113.511 59.9238 111 69 111C60.6332 107.489 47.0762 110 38 110z"/>
<path style="fill:#6a3738; stroke:none;" d="M69.6667 110.333C69.2222 110.778 70.2778 110.722 70.3333 110.667C70.7778 110.222 69.7222 110.278 69.6667 110.333z"/>
<path style="fill:#5b1216; stroke:none;" d="M71 110C71.9589 110.798 73.1434 111.588 73.9892 112.509C82.4169 121.689 67.0548 121.172 62 123C62.5977 124.195 62.4661 123.977 64 125C68.0948 122.834 71.683 123.884 76 125L80 118C77.4551 113.597 76.4776 110.741 71 110z"/>
<path style="fill:#461013; stroke:none;" d="M86 110L86 126C87.8123 121.681 87.8123 114.319 86 110z"/>
<path style="fill:#cf9fa6; stroke:none;" d="M102 110L103 111L102 110z"/>
<path style="fill:#d5aaab; stroke:none;" d="M72 111L73 112L72 111z"/>
<path style="fill:#8b5859; stroke:none;" d="M73 111L74 112L73 111z"/>
<path style="fill:#946b6f; stroke:none;" d="M101 111L102 112L101 111z"/>
<path style="fill:#d6c2c3; stroke:none;" d="M18 112L19 113L18 112z"/>
<path style="fill:#391615; stroke:none;" d="M19.3333 112.667C19.2778 112.722 19.2222 113.778 19.6667 113.333C19.7222 113.278 19.7778 112.222 19.3333 112.667z"/>
<path style="fill:#d5adad; stroke:none;" d="M28.3333 112.667C28.2778 112.722 28.2222 113.778 28.6667 113.333C28.7222 113.278 28.7778 112.222 28.3333 112.667z"/>
<path style="fill:#e5cdce; stroke:none;" d="M74 112L75 113L74 112z"/>
<path style="fill:#98686d; stroke:none;" d="M100 112L101 113L100 112z"/>
<path style="fill:#dfb6b5; stroke:none;" d="M130 112L131 113L130 112z"/>
<path style="fill:#b68685; stroke:none;" d="M131 112L132 113L131 112z"/>
<path style="fill:#6a282b; stroke:none;" d="M132.667 112.333C132.222 112.778 133.278 112.722 133.333 112.667C133.778 112.222 132.722 112.278 132.667 112.333z"/>
<path style="fill:#69050a; stroke:none;" d="M134 112C135.969 113.063 137.798 113.532 140 114C138.266 111.997 136.645 112.077 134 112z"/>
<path style="fill:#79141c; stroke:none;" d="M140 112C140.41 119.399 144.634 118.999 151 119C148.845 115.978 146.617 115.641 143 116L143 114L141 115L142 112L140 112z"/>
<path style="fill:#8c4d4f; stroke:none;" d="M142 112L143 113L142 112z"/>
<path style="fill:#b47a7d; stroke:none;" d="M143 112L144 113L143 112z"/>
<path style="fill:#dfa8ac; stroke:none;" d="M144 112L145 113L144 112z"/>
<path style="fill:#e0c3c9; stroke:none;" d="M110 113L111 114L110 113z"/>
<path style="fill:#b49192; stroke:none;" d="M127 113L128 114L127 113z"/>
<path style="fill:#73111c; stroke:none;" d="M128 113C125.339 115.212 122.097 116.02 119.129 117.796C116.543 119.344 115.052 121.594 112 122C112.379 123.767 112.638 125.127 114.944 124.861C117.691 124.545 120.527 121.605 123 120.389C126.497 118.669 130.142 118.065 134 118L133 114L128 113z"/>
<path style="fill:#550809; stroke:none;" d="M129 113C130.769 113.779 132.036 113.912 134 114C132.231 113.221 130.964 113.088 129 113z"/>
<path style="fill:#621e1d; stroke:none;" d="M133 117L141 119C139.726 114.388 135.057 110.822 133 117z"/>
<path style="fill:#71111c; stroke:none;" d="M141 115C142.661 114.792 142.54 114.505 143 116C146.543 115.822 148.443 116.54 151 119L143 119C147.858 126.447 151.221 134.876 144.57 142.891C140.424 147.888 125.811 150.371 122.604 142.853C120.719 138.432 123.849 132.311 125 128C127.195 128.295 129.827 128.145 131.826 129.215C133.608 130.169 137.291 133.952 134.539 135.802C132.905 136.902 129.82 136.122 128 136C130.057 142.512 135.806 140.62 141 139L139 133C141.77 130.552 139.018 127.319 139 124C134.634 123.967 130.361 123.636 126 124C124.309 127.083 121.368 128.451 119.353 131.263C114.447 138.107 117.069 143.684 118 151C120.352 151.999 122.571 153.449 125.09 154.012C133.4 155.867 150.964 154.691 156.142 146.892C159.763 141.438 158.623 129.05 156.941 123C155.438 117.59 146.083 109.215 141 115z"/>
<path style="fill:#9e706f; stroke:none;" d="M147 113L148 114L147 113z"/>
<path style="fill:#cd7f87; stroke:none;" d="M20 114L21 115L20 114z"/>
<path style="fill:#9c7274; stroke:none;" d="M28 114L29 115L28 114z"/>
<path style="fill:#bc8a91; stroke:none;" d="M76 114L76 120C76.9511 117.715 76.9511 116.285 76 114z"/>
<path style="fill:#bf7e86; stroke:none;" d="M109 114L110 115L109 114z"/>
<path style="fill:#eec5c8; stroke:none;" d="M124 114L125 115L124 114z"/>
<path style="fill:#865257; stroke:none;" d="M125 114L126 115L125 114z"/>
<path style="fill:#4a0009; stroke:none;" d="M126.667 114.333C126.222 114.778 127.278 114.722 127.333 114.667C127.778 114.222 126.722 114.278 126.667 114.333z"/>
<path style="fill:#7c494d; stroke:none;" d="M149 114L150 115L149 114z"/>
<path style="fill:#dfb4b5; stroke:none;" d="M150 114L151 115L150 114z"/>
<path style="fill:#eab9bc; stroke:none;" d="M19 115L20 116L19 115z"/>
<path style="fill:#ffdfe9; stroke:none;" d="M20.3333 115.667C20.2778 115.722 20.2222 116.778 20.6667 116.333C20.7222 116.278 20.7778 115.222 20.3333 115.667z"/>
<path style="fill:#c2b1ad; stroke:none;" d="M99.3333 115.667C99.2778 115.722 99.2222 116.778 99.6667 116.333C99.7222 116.278 99.7778 115.222 99.3333 115.667z"/>
<path style="fill:#7c484a; stroke:none;" d="M123 115L124 116L123 115z"/>
<path style="fill:#550a16; stroke:none;" d="M19 116L18 133C19.8843 128.52 20.8997 120.537 19 116z"/>
<path style="fill:#4d0814; stroke:none;" d="M28 116L28 131C29.7404 126.852 29.7404 120.148 28 116z"/>
<path style="fill:#e9c0c1; stroke:none;" d="M108 116L109 117L108 116z"/>
<path style="fill:#9c6263; stroke:none;" d="M121 116L122 117L121 116z"/>
<path style="fill:#dcb7b9; stroke:none;" d="M153 116L154 117L153 116z"/>
<path style="fill:#b19194; stroke:none;" d="M18 117L19 118L18 117z"/>
<path style="fill:#9f4c55; stroke:none;" d="M20 117L21 118L20 117z"/>
<path style="fill:#f7bfc8; stroke:none;" d="M29 117L29 128C30.4309 124.59 30.4309 120.41 29 117z"/>
<path style="fill:#3f070a; stroke:none;" d="M106.333 117.667C106.278 117.722 106.222 118.778 106.667 118.333C106.722 118.278 106.778 117.222 106.333 117.667z"/>
<path style="fill:#9e7070; stroke:none;" d="M107 117L108 118L107 117z"/>
<path style="fill:#e6c6bd; stroke:none;" d="M119 117L120 118L119 117z"/>
<path style="fill:#db969e; stroke:none;" d="M134.667 117.333C134.222 117.778 135.278 117.722 135.333 117.667C135.778 117.222 134.722 117.278 134.667 117.333z"/>
<path style="fill:#a77c7e; stroke:none;" d="M154 117L155 118L154 117z"/>
<path style="fill:#784951; stroke:none;" d="M18.3333 118.667C18.2778 118.722 18.2222 119.778 18.6667 119.333C18.7222 119.278 18.7778 118.222 18.3333 118.667z"/>
<path style="fill:#dbb7b5; stroke:none;" d="M117 118L118 119L117 118z"/>
<path style="fill:#481b18; stroke:none;" d="M121 123C124.658 121.5 128.141 119.917 132 119C127.76 117.483 123.234 119.162 121 123z"/>
<path style="fill:#330006; stroke:none;" d="M132.667 118.333C132.222 118.778 133.278 118.722 133.333 118.667C133.778 118.222 132.722 118.278 132.667 118.333z"/>
<path style="fill:#9a646b; stroke:none;" d="M155 118L156 119L155 118z"/>
<path style="fill:#edc8cc; stroke:none;" d="M37 119L38 120L37 119z"/>
<path style="fill:#6f4448; stroke:none;" d="M38 119L39 120L38 119z"/>
<path style="fill:#551317; stroke:none;" d="M38 128C37.9619 125.45 38.2916 123.454 39 121L44 123C39.909 116.911 32.9473 122.715 38 128z"/>
<path style="fill:#a47578; stroke:none;" d="M40 119L41 120L40 119z"/>
<path style="fill:#dac0bf; stroke:none;" d="M49.6667 119.333C49.2222 119.778 50.2778 119.722 50.3333 119.667C50.7778 119.222 49.7222 119.278 49.6667 119.333z"/>
<path style="fill:#9d7172; stroke:none;" d="M106 119L107 120L106 119z"/>
<path style="fill:#eac6cb; stroke:none;" d="M115 119L116 120L115 119z"/>
<path style="fill:#dfb6b4; stroke:none;" d="M129 119C130.248 119.685 130.548 119.749 132 120C130.752 119.315 130.452 119.251 129 119z"/>
<path style="fill:#8d424b; stroke:none;" d="M141.667 119.333C141.222 119.778 142.278 119.722 142.333 119.667C142.778 119.222 141.722 119.278 141.667 119.333z"/>
<path style="fill:#d9a9ae; stroke:none;" d="M156 119L157 120L156 119z"/>
<path style="fill:#9c606c; stroke:none;" d="M18 120L18 123C18.6961 121.446 18.6961 121.554 18 120z"/>
<path style="fill:#b27778; stroke:none;" d="M42 120L43 121L42 120z"/>
<path style="fill:#a27b7b; stroke:none;" d="M47 120L48 121L47 120z"/>
<path style="fill:#3f0e0c; stroke:none;" d="M48 120C49.1393 121.015 49.6116 121.309 51 122C50.0198 120.217 50.0924 120.406 48 120z"/>
<path style="fill:#9e7e7b; stroke:none;" d="M56 120L57 121L56 120z"/>
<path style="fill:#c8a7a8; stroke:none;" d="M57 120L58 121L57 120z"/>
<path style="fill:#ddc0bd; stroke:none;" d="M66.6667 120.333C66.2222 120.778 67.2778 120.722 67.3333 120.667C67.7778 120.222 66.7222 120.278 66.6667 120.333z"/>
<path style="fill:#efcacc; stroke:none;" d="M98 120L98 123C98.6961 121.446 98.6961 121.554 98 120z"/>
<path style="fill:#8c6465; stroke:none;" d="M114 120L115 121L114 120z"/>
<path style="fill:#4e1011; stroke:none;" d="M115 120C113.964 121.186 113.661 121.604 113 123C114.849 122.033 115.722 121.86 115 120z"/>
<path style="fill:#966c6a; stroke:none;" d="M126 120L127 121L126 120z"/>
<path style="fill:#ccb0ac; stroke:none;" d="M127 120L128 121L127 120z"/>
<path style="fill:#a36e73; stroke:none;" d="M156 120L157 121L156 120z"/>
<path style="fill:#e1aaaa; stroke:none;" d="M53.6667 121.333C53.2222 121.778 54.2778 121.722 54.3333 121.667C54.7778 121.222 53.7222 121.278 53.6667 121.333z"/>
<path style="fill:#330003; stroke:none;" d="M57.6667 121.333C57.2222 121.778 58.2778 121.722 58.3333 121.667C58.7778 121.222 57.7222 121.278 57.6667 121.333z"/>
<path style="fill:#b58687; stroke:none;" d="M60 121L61 122L60 121z"/>
<path style="fill:#834f52; stroke:none;" d="M65 121L66 122L65 121z"/>
<path style="fill:#87605d; stroke:none;" d="M70 121L71 122L70 121z"/>
<path style="fill:#f1cdc9; stroke:none;" d="M71 121L72 122L71 121z"/>
<path style="fill:#8c5459; stroke:none;" d="M105 121L106 122L105 121z"/>
<path style="fill:#93726c; stroke:none;" d="M124 121L125 122L124 121z"/>
<path style="fill:#d4a3a6; stroke:none;" d="M35 122L36 123L35 122z"/>
<path style="fill:#965054; stroke:none;" d="M62.6667 122.333C62.2222 122.778 63.2778 122.722 63.3333 122.667C63.7778 122.222 62.7222 122.278 62.6667 122.333z"/>
<path style="fill:#8b484c; stroke:none;" d="M72.6667 122.333C72.2222 122.778 73.2778 122.722 73.3333 122.667C73.7778 122.222 72.7222 122.278 72.6667 122.333z"/>
<path style="fill:#f5c9ce; stroke:none;" d="M105 122L106 123L105 122z"/>
<path style="fill:#5c1316; stroke:none;" d="M111 133C115.32 131.469 118.954 126.012 121 122C114.56 123.736 111.081 126.165 111 133z"/>
<path style="fill:#8e6563; stroke:none;" d="M122 122L123 123L122 122z"/>
<path style="fill:#ceaeab; stroke:none;" d="M123 122L124 123L123 122z"/>
<path style="fill:#7f4c4e; stroke:none;" d="M35 123L36 124L35 123z"/>
<path style="fill:#c18d92; stroke:none;" d="M128 123L129 124L128 123z"/>
<path style="fill:#8c5257; stroke:none;" d="M129 123L130 124L129 123z"/>
<path style="fill:#411114; stroke:none;" d="M131 123C133.052 123.874 134.747 123.953 137 124C134.948 123.126 133.253 123.047 131 123z"/>
<path style="fill:#af8c8f; stroke:none;" d="M137 123L138 124L137 123z"/>
<path style="fill:#e7cbcc; stroke:none;" d="M138 123L139 124L138 123z"/>
<path style="fill:#8e6065; stroke:none;" d="M146 123L146 126C146.696 124.446 146.696 124.554 146 123z"/>
<path style="fill:#c6979c; stroke:none;" d="M157 123L158 124L157 123z"/>
<path style="fill:#430504; stroke:none;" d="M103.333 124.667C103.278 124.722 103.222 125.778 103.667 125.333C103.722 125.278 103.778 124.222 103.333 124.667z"/>
<path style="fill:#ba9091; stroke:none;" d="M104 124L105 125L104 124z"/>
<path style="fill:#eebec1; stroke:none;" d="M125 124L126 125L125 124z"/>
<path style="fill:#865156; stroke:none;" d="M139 124L140 125L139 124z"/>
<path style="fill:#612a30; stroke:none;" d="M157.333 124.667C157.278 124.722 157.222 125.778 157.667 125.333C157.722 125.278 157.778 124.222 157.333 124.667z"/>
<path style="fill:#a46270; stroke:none;" d="M98 125L99 126L98 125z"/>
<path style="fill:#c88a90; stroke:none;" d="M111 125L112 126L111 125z"/>
<path style="fill:#be878c; stroke:none;" d="M118 125L119 126L118 125z"/>
<path style="fill:#7a4c4f; stroke:none;" d="M124 125L125 126L124 125z"/>
<path style="fill:#5e0d12; stroke:none;" d="M125 125C123.39 126.328 122.299 127.383 121 129C123.253 128.168 125.441 127.54 125 125z"/>
<path style="fill:#4a181c; stroke:none;" d="M139 125C140.223 126.195 140.42 126.316 142 127C140.777 125.805 140.58 125.684 139 125z"/>
<path style="fill:#540206; stroke:none;" d="M147 125L148 132C149.078 129.227 148.663 127.435 147 125z"/>
<path style="fill:#bd9396; stroke:none;" d="M35 126L36 127L35 126z"/>
<path style="fill:#f7ccce; stroke:none;" d="M86.3333 126.667C86.2777 126.722 86.2222 127.778 86.6667 127.333C86.7222 127.278 86.7778 126.222 86.3333 126.667z"/>
<path style="fill:#6d3d36; stroke:none;" d="M103 126L104 127L103 126z"/>
<path style="fill:#edc2c9; stroke:none;" d="M110 126L111 127L110 126z"/>
<path style="fill:#926969; stroke:none;" d="M117 126L118 127L117 126z"/>
<path style="fill:#66141a; stroke:none;" d="M138 126C139.356 128.729 140.648 130.302 139 133C139.504 135.146 140.119 136.979 141 139C138.828 139.464 137.042 140.105 135 141C144.414 143.575 146.611 129.099 138 126z"/>
<path style="fill:#dac0be; stroke:none;" d="M17.3333 127.667C17.2778 127.722 17.2222 128.778 17.6667 128.333C17.7222 128.278 17.7778 127.222 17.3333 127.667z"/>
<path style="fill:#c09c95; stroke:none;" d="M103 127L104 128L103 127z"/>
<path style="fill:#754149; stroke:none;" d="M110 127L111 128L110 127z"/>
<path style="fill:#a26e72; stroke:none;" d="M142 127L143 128L142 127z"/>
<path style="fill:#dfb5bb; stroke:none;" d="M29 128L29 132C29.7102 130.241 29.7102 129.759 29 128z"/>
<path style="fill:#ddc4c2; stroke:none;" d="M37 128L38 129L37 128z"/>
<path style="fill:#886464; stroke:none;" d="M38 128L39 129L38 128z"/>
<path style="fill:#520814; stroke:none;" d="M39 128C46.6488 131.21 58.7122 129 67 129C59.3512 125.79 47.2878 128 39 128z"/>
<path style="fill:#420a0d; stroke:none;" d="M75 128C77.0521 128.874 78.7472 128.953 81 129C78.9479 128.126 77.2528 128.047 75 128z"/>
<path style="fill:#784850; stroke:none;" d="M81 128L82 129L81 128z"/>
<path style="fill:#b99398; stroke:none;" d="M82 128C83.2484 128.685 83.5484 128.749 85 129C83.7517 128.315 83.4516 128.251 82 128z"/>
<path style="fill:#430000; stroke:none;" d="M110 128L110 132C110.71 130.241 110.71 129.759 110 128z"/>
<path style="fill:#826565; stroke:none;" d="M116 128L117 129L116 128z"/>
<path style="fill:#640e13; stroke:none;" d="M125 128L124 132C127.468 130.453 130.205 129.862 134 130C131.133 128.048 128.375 128.245 125 128z"/>
<path style="fill:#be9f94; stroke:none;" d="M147 128L147 132C147.71 130.241 147.71 129.759 147 128z"/>
<path style="fill:#ddc1c3; stroke:none;" d="M158 128L158 136C159.161 133.23 159.161 130.77 158 128z"/>
<path style="fill:#b19393; stroke:none;" d="M17 129L17 132C17.6961 130.446 17.6961 130.554 17 129z"/>
<path style="fill:#f2c3c6; stroke:none;" d="M40 129C42.6127 130.098 45.1645 129.993 48 130C45.3873 128.902 42.8355 129.007 40 129z"/>
<path style="fill:#daaaae; stroke:none;" d="M48 129C51.9587 130.661 56.7366 130 61 130C57.0413 128.339 52.2634 129 48 129z"/>
<path style="fill:#f4c2cb; stroke:none;" d="M61 129C62.769 129.779 64.0359 129.912 66 130C64.231 129.221 62.9641 129.088 61 129z"/>
<path style="fill:#91575d; stroke:none;" d="M66 129L67 130L66 129z"/>
<path style="fill:#400005; stroke:none;" d="M68 129C69.769 129.779 71.0359 129.912 73 130C71.231 129.221 69.9641 129.088 68 129z"/>
<path style="fill:#f1cdcb; stroke:none;" d="M74 129C75.769 129.779 77.0359 129.912 79 130C77.231 129.221 75.9641 129.088 74 129z"/>
<path style="fill:#b9978f; stroke:none;" d="M97 129L98 130L97 129z"/>
<path style="fill:#755453; stroke:none;" d="M102 129L103 130L102 129z"/>
<path style="fill:#c6b6ad; stroke:none;" d="M109 129L109 132C109.696 130.446 109.696 130.554 109 129z"/>
<path style="fill:#825356; stroke:none;" d="M115 129L116 130L115 129z"/>
<path style="fill:#9e6d6b; stroke:none;" d="M129.667 129.333C129.222 129.778 130.278 129.722 130.333 129.667C130.778 129.222 129.722 129.278 129.667 129.333z"/>
<path style="fill:#d19b9e; stroke:none;" d="M143 129L144 130L143 129z"/>
<path style="fill:#a78f8d; stroke:none;" d="M72 130L73 131L72 130z"/>
<path style="fill:#dec7c4; stroke:none;" d="M73 130L74 131L73 130z"/>
<path style="fill:#7c4c49; stroke:none;" d="M97 130L98 131L97 130z"/>
<path style="fill:#bf9e9c; stroke:none;" d="M102 130L103 131L102 130z"/>
<path style="fill:#94585a; stroke:none;" d="M114 130L115 131L114 130z"/>
<path style="fill:#a47077; stroke:none;" d="M119 130L120 131L119 130z"/>
<path style="fill:#82494c; stroke:none;" d="M126 130L127 131L126 130z"/>
<path style="fill:#a66b72; stroke:none;" d="M133 130L134 131L133 130z"/>
<path style="fill:#f3d3d3; stroke:none;" d="M114.333 131.667C114.278 131.722 114.222 132.778 114.667 132.333C114.722 132.278 114.778 131.222 114.333 131.667z"/>
<path style="fill:#f5c5ca; stroke:none;" d="M118 131L119 132L118 131z"/>
<path style="fill:#a77b79; stroke:none;" d="M125 131L126 132L125 131z"/>
<path style="fill:#ebb7be; stroke:none;" d="M134 131L135 132L134 131z"/>
<path style="fill:#a16b6f; stroke:none;" d="M96 132L97 133L96 132z"/>
<path style="fill:#4e161b; stroke:none;" d="M100 132L100 136C100.71 134.241 100.71 133.759 100 132z"/>
<path style="fill:#7a3a42; stroke:none;" d="M101 132L102 133L101 132z"/>
<path style="fill:#c98485; stroke:none;" d="M110 132L111 133L110 132z"/>
<path style="fill:#80444c; stroke:none;" d="M118 132L119 133L118 132z"/>
<path style="fill:#9d706c; stroke:none;" d="M124 132L125 133L124 132z"/>
<path style="fill:#410000; stroke:none;" d="M143.333 132.667C143.278 132.722 143.222 133.778 143.667 133.333C143.722 133.278 143.778 132.222 143.333 132.667z"/>
<path style="fill:#956a63; stroke:none;" d="M147 132L147 137C147.83 134.97 147.83 134.03 147 132z"/>
<path style="fill:#b78285; stroke:none;" d="M101 133L102 134L101 133z"/>
<path style="fill:#d0a8a6; stroke:none;" d="M108 133C109.248 133.685 109.548 133.749 111 134C109.752 133.315 109.452 133.251 108 133z"/>
<path style="fill:#d5c4bd; stroke:none;" d="M117 133L118 134L117 133z"/>
<path style="fill:#590e1d; stroke:none;" d="M136 133L135 136C132.645 135.132 130.469 134.426 128 134C130.165 136.676 137.174 138.224 136 133z"/>
<path style="fill:#d498a2; stroke:none;" d="M18 134L19 135L18 134z"/>
<path style="fill:#c7979a; stroke:none;" d="M30.3333 134.667C30.2778 134.722 30.2222 135.778 30.6667 135.333C30.7222 135.278 30.7778 134.222 30.3333 134.667z"/>
<path style="fill:#986f75; stroke:none;" d="M107 134L108 135L107 134z"/>
<path style="fill:#771a21; stroke:none;" d="M109 146C110.091 144.072 110.165 143.23 110 141C111.461 139.717 112.96 134.164 109.17 134.921C104.845 135.785 108.071 143.808 109 146z"/>
<path style="fill:#a25a5e; stroke:none;" d="M111 134L112 135L111 134z"/>
<path style="fill:#745552; stroke:none;" d="M117 134L118 135L117 134z"/>
<path style="fill:#a37781; stroke:none;" d="M131 134L132 135L131 134z"/>
<path style="fill:#dfbfba; stroke:none;" d="M135 134L136 135L135 134z"/>
<path style="fill:#e1c3c6; stroke:none;" d="M95 135L96 136L95 135z"/>
<path style="fill:#d2aab2; stroke:none;" d="M106 135L107 136L106 135z"/>
<path style="fill:#d5bcc1; stroke:none;" d="M112 135L113 136L112 135z"/>
<path style="fill:#7a4847; stroke:none;" d="M122 135L123 136L122 135z"/>
<path style="fill:#7d6068; stroke:none;" d="M127 135L128 136L127 135z"/>
<path style="fill:#e9bebd; stroke:none;" d="M133.667 135.333C133.222 135.778 134.278 135.722 134.333 135.667C134.778 135.222 133.722 135.278 133.667 135.333z"/>
<path style="fill:#8e696c; stroke:none;" d="M95 136L96 137L95 136z"/>
<path style="fill:#3a0001; stroke:none;" d="M99 136L99 142C99.9511 139.715 99.9511 138.285 99 136z"/>
<path style="fill:#9b7a7a; stroke:none;" d="M100.333 136.667C100.278 136.722 100.222 137.778 100.667 137.333C100.722 137.278 100.778 136.222 100.333 136.667z"/>
<path style="fill:#a4767e; stroke:none;" d="M106 136L107 137L106 136z"/>
<path style="fill:#553f45; stroke:none;" d="M112 136L113 137L112 136z"/>
<path style="fill:#c19394; stroke:none;" d="M116 136L117 137L116 136z"/>
<path style="fill:#c4a49c; stroke:none;" d="M122 136L123 137L122 136z"/>
<path style="fill:#3d0a17; stroke:none;" d="M127.333 136.667C127.278 136.722 127.222 137.778 127.667 137.333C127.722 137.278 127.778 136.222 127.333 136.667z"/>
<path style="fill:#987372; stroke:none;" d="M143 136L144 137L143 136z"/>
<path style="fill:#fbc0c3; stroke:none;" d="M31 137L32 138L31 137z"/>
<path style="fill:#ddc6c6; stroke:none;" d="M94 137L95 138L94 137z"/>
<path style="fill:#b69fa8; stroke:none;" d="M112 137L113 138L112 137z"/>
<path style="fill:#e1a6a7; stroke:none;" d="M157.333 137.667C157.278 137.722 157.222 138.778 157.667 138.333C157.722 138.278 157.778 137.222 157.333 137.667z"/>
<path style="fill:#9f6264; stroke:none;" d="M21.3333 138.667C21.2778 138.722 21.2222 139.778 21.6667 139.333C21.7222 139.278 21.7778 138.222 21.3333 138.667z"/>
<path style="fill:#884449; stroke:none;" d="M31 138L32 139L31 138z"/>
<path style="fill:#ad8687; stroke:none;" d="M94 138L95 139L94 138z"/>
<path style="fill:#c6abad; stroke:none;" d="M100 138L101 139L100 138z"/>
<path style="fill:#92626d; stroke:none;" d="M127 138L128 139L127 138z"/>
<path style="fill:#ab8885; stroke:none;" d="M34 139L35 140L34 139z"/>
<path style="fill:#e6bfc1; stroke:none;" d="M115 139L116 140L115 139z"/>
<path style="fill:#8a4b47; stroke:none;" d="M128 139L129 140L128 139z"/>
<path style="fill:#8d212f; stroke:none;" d="M133.667 139.333C133.222 139.778 134.278 139.722 134.333 139.667C134.778 139.222 133.722 139.278 133.667 139.333z"/>
<path style="fill:#efc8c4; stroke:none;" d="M146 139L147 140L146 139z"/>
<path style="fill:#4f0f13; stroke:none;" d="M34 140C35.458 141.081 36.248 141.436 38 142C36.457 140.733 35.9522 140.511 34 140z"/>
<path style="fill:#8a5856; stroke:none;" d="M37 140L38 141L37 140z"/>
<path style="fill:#ab7e7f; stroke:none;" d="M115 140L115 146C115.951 143.715 115.951 142.285 115 140z"/>
<path style="fill:#dec9b9; stroke:none;" d="M129 140L130 141L129 140z"/>
<path style="fill:#74584f; stroke:none;" d="M130 140L131 141L130 140z"/>
<path style="fill:#895a5b; stroke:none;" d="M140 140L141 141L140 140z"/>
<path style="fill:#9b6967; stroke:none;" d="M146 140L147 141L146 140z"/>
<path style="fill:#785456; stroke:none;" d="M158.333 140.667C158.278 140.722 158.222 141.778 158.667 141.333C158.722 141.278 158.778 140.222 158.333 140.667z"/>
<path style="fill:#9d6d70; stroke:none;" d="M20 141L21 142L20 141z"/>
<path style="fill:#a97877; stroke:none;" d="M39 141C40.2483 141.685 40.5484 141.749 42 142C40.7517 141.315 40.4516 141.251 39 141z"/>
<path style="fill:#73514e; stroke:none;" d="M42 141C43.2483 141.685 43.5484 141.749 45 142C43.7517 141.315 43.4516 141.251 42 141z"/>
<path style="fill:#a68583; stroke:none;" d="M45 141L46 142L45 141z"/>
<path style="fill:#7b3d40; stroke:none;" d="M92 141L93 142L92 141z"/>
<path style="fill:#a2817b; stroke:none;" d="M106 141L107 142L106 141z"/>
<path style="fill:#4f1015; stroke:none;" d="M110 141L110 146C111.418 143.897 111.901 142.788 110 141z"/>
<path style="fill:#e3b6bc; stroke:none;" d="M122 141L123 142L122 141z"/>
<path style="fill:#dcaab5; stroke:none;" d="M132 141L133 142L132 141z"/>
<path style="fill:#823e4d; stroke:none;" d="M133.667 141.333C133.222 141.778 134.278 141.722 134.333 141.667C134.778 141.222 133.722 141.278 133.667 141.333z"/>
<path style="fill:#a57a7b; stroke:none;" d="M138 141L139 142L138 141z"/>
<path style="fill:#85444f; stroke:none;" d="M20.3333 142.667C20.2778 142.722 20.2222 143.778 20.6667 143.333C20.7222 143.278 20.7778 142.222 20.3333 142.667z"/>
<path style="fill:#edc9cb; stroke:none;" d="M48.6667 142.333C48.2222 142.778 49.2778 142.722 49.3333 142.667C49.7778 142.222 48.7222 142.278 48.6667 142.333z"/>
<path style="fill:#dbbdb7; stroke:none;" d="M106 142L107 143L106 142z"/>
<path style="fill:#824353; stroke:none;" d="M122 142L123 143L122 142z"/>
<path style="fill:#a77e82; stroke:none;" d="M145 142L146 143L145 142z"/>
<path style="fill:#f5c9ce; stroke:none;" d="M158.333 142.667C158.278 142.722 158.222 143.778 158.667 143.333C158.722 143.278 158.778 142.222 158.333 142.667z"/>
<path style="fill:#3e1215; stroke:none;" d="M48 143C49.769 143.779 51.0359 143.912 53 144C51.231 143.221 49.9641 143.088 48 143z"/>
<path style="fill:#785253; stroke:none;" d="M53 143L54 144L53 143z"/>
<path style="fill:#d6b7b8; stroke:none;" d="M54 143L55 144L54 143z"/>
<path style="fill:#c8acaa; stroke:none;" d="M89 143L90 144L89 143z"/>
<path style="fill:#815450; stroke:none;" d="M107 143L108 144L107 143z"/>
<path style="fill:#440a0e; stroke:none;" d="M122 143C122.899 145.124 122.876 145.101 125 146C123.897 144.543 123.457 144.103 122 143z"/>
<path style="fill:#d7a0ad; stroke:none;" d="M123 143L124 144L123 143z"/>
<path style="fill:#e9bdc5; stroke:none;" d="M144 143L145 144L144 143z"/>
<path style="fill:#f2c1c9; stroke:none;" d="M20 144L21 145L20 144z"/>
<path style="fill:#b98588; stroke:none;" d="M57 144L58 145L57 144z"/>
<path style="fill:#d3a2a4; stroke:none;" d="M86 144L87 145L86 144z"/>
<path style="fill:#5a0e12; stroke:none;" d="M80 146C83.5315 147.437 86.5278 146.265 90 145C86.7427 144.094 83.3745 145.664 80 146z"/>
<path style="fill:#a97b7e; stroke:none;" d="M99 144L100 145L99 144z"/>
<path style="fill:#3e0a11; stroke:none;" d="M108 144C108.406 146.092 108.217 146.02 110 147C109.309 145.612 109.015 145.139 108 144z"/>
<path style="fill:#ffdbdd; stroke:none;" d="M111.333 144.667C111.278 144.722 111.222 145.778 111.667 145.333C111.722 145.278 111.778 144.222 111.333 144.667z"/>
<path style="fill:#b78f8f; stroke:none;" d="M124 144L125 145L124 144z"/>
<path style="fill:#986467; stroke:none;" d="M157 144L158 145L157 144z"/>
<path style="fill:#59171b; stroke:none;" d="M57 145C59.2217 146.663 61.2948 147.355 64 148C62.12 145.526 60.0482 145.277 57 145z"/>
<path style="fill:#856767; stroke:none;" d="M61 145C62.769 145.779 64.0359 145.912 66 146C64.231 145.221 62.9641 145.088 61 145z"/>
<path style="fill:#eed6d6; stroke:none;" d="M66.6667 145.333C66.2222 145.778 67.2778 145.722 67.3333 145.667C67.7778 145.222 66.7222 145.278 66.6667 145.333z"/>
<path style="fill:#c79d9d; stroke:none;" d="M83 145L84 146L83 145z"/>
<path style="fill:#8f5c5c; stroke:none;" d="M84 145L85 146L84 145z"/>
<path style="fill:#d5b3b1; stroke:none;" d="M99 145L100 146L99 145z"/>
<path style="fill:#7e5354; stroke:none;" d="M125 145L126 146L125 145z"/>
<path style="fill:#e3c1c2; stroke:none;" d="M126 145L127 146L126 145z"/>
<path style="fill:#967070; stroke:none;" d="M142 145L143 146L142 145z"/>
<path style="fill:#deb3b9; stroke:none;" d="M21 146L22 147L21 146z"/>
<path style="fill:#510612; stroke:none;" d="M64 146C66.6127 147.098 69.1645 146.993 72 147C69.3873 145.902 66.8355 146.007 64 146z"/>
<path style="fill:#99545d; stroke:none;" d="M74 146C75.5061 146.683 76.3148 146.826 78 147C76.494 146.317 75.6852 146.174 74 146z"/>
<path style="fill:#b38889; stroke:none;" d="M110 146L111 147L110 146z"/>
<path style="fill:#dfc0be; stroke:none;" d="M115 146L116 147L115 146z"/>
<path style="fill:#4e1418; stroke:none;" d="M116 146C116.683 150.17 117.894 151.851 122 153C120.457 151.733 119.952 151.511 118 151L118 146L116 146z"/>
<path style="fill:#b98e92; stroke:none;" d="M128 146L129 147L128 146z"/>
<path style="fill:#e5c6c8; stroke:none;" d="M129 146L130 147L129 146z"/>
<path style="fill:#f1bbc1; stroke:none;" d="M139 146L140 147L139 146z"/>
<path style="fill:#a4666d; stroke:none;" d="M140 146L141 147L140 146z"/>
<path style="fill:#905357; stroke:none;" d="M22 147C23.2484 147.685 23.5484 147.749 25 148C23.7516 147.315 23.4516 147.251 22 147z"/>
<path style="fill:#bd9495; stroke:none;" d="M98 147L99 148L98 147z"/>
<path style="fill:#d3acb2; stroke:none;" d="M108 147L109 148L108 147z"/>
<path style="fill:#a37b80; stroke:none;" d="M109 147L110 148L109 147z"/>
<path style="fill:#936164; stroke:none;" d="M132 147C133.769 147.779 135.036 147.912 137 148C135.231 147.221 133.964 147.088 132 147z"/>
<path style="fill:#d7b4b5; stroke:none;" d="M156 147L157 148L156 147z"/>
<path style="fill:#8f6167; stroke:none;" d="M97 148L98 149L97 148z"/>
<path style="fill:#774b4c; stroke:none;" d="M26 149L27 150L26 149z"/>
<path style="fill:#49030b; stroke:none;" d="M94.6667 149.333C94.2222 149.778 95.2778 149.722 95.3333 149.667C95.7778 149.222 94.7222 149.278 94.6667 149.333z"/>
<path style="fill:#a37376; stroke:none;" d="M96 149L97 150L96 149z"/>
<path style="fill:#b28382; stroke:none;" d="M116 149L117 150L116 149z"/>
<path style="fill:#bf9596; stroke:none;" d="M27 150L28 151L27 150z"/>
<path style="fill:#50070c; stroke:none;" d="M86 151C88.8065 152.146 91.0713 151.692 94 151C91.2436 149.923 88.8932 150.468 86 151z"/>
<path style="fill:#925f62; stroke:none;" d="M94 150L95 151L94 150z"/>
<path style="fill:#835a5a; stroke:none;" d="M152 150L153 151L152 150z"/>
<path style="fill:#d0a0a3; stroke:none;" d="M29 151L30 152L29 151z"/>
<path style="fill:#955d64; stroke:none;" d="M30 151L31 152L30 151z"/>
<path style="fill:#49030b; stroke:none;" d="M32 151C40.3668 154.511 53.9238 152 63 152C54.6332 148.489 41.0762 151 32 151z"/>
<path style="fill:#bd9596; stroke:none;" d="M92 151L93 152L92 151z"/>
<path style="fill:#b88c8a; stroke:none;" d="M149 151L150 152L149 151z"/>
<path style="fill:#bea1a1; stroke:none;" d="M33 152C35.8897 153.213 38.8741 152.998 42 153C39.1103 151.787 36.1259 152.002 33 152z"/>
<path style="fill:#edd4cf; stroke:none;" d="M42 152C43.506 152.683 44.3148 152.826 46 153C44.494 152.317 43.6852 152.174 42 152z"/>
<path style="fill:#d0b0ad; stroke:none;" d="M56 152C57.769 152.779 59.0359 152.912 61 153C59.231 152.221 57.9641 152.088 56 152z"/>
<path style="fill:#ab8b86; stroke:none;" d="M61 152C62.2484 152.685 62.5484 152.749 64 153C62.7516 152.315 62.4516 152.251 61 152z"/>
<path style="fill:#885154; stroke:none;" d="M64.6667 152.333C64.2222 152.778 65.2778 152.722 65.3333 152.667C65.7778 152.222 64.7222 152.278 64.6667 152.333z"/>
<path style="fill:#410509; stroke:none;" d="M70 152C74.4714 153.876 80.1834 153 85 153C80.5286 151.124 74.8166 152 70 152z"/>
<path style="fill:#935f60; stroke:none;" d="M86.6667 152.333C86.2222 152.778 87.2778 152.722 87.3333 152.667C87.7778 152.222 86.7222 152.278 86.6667 152.333z"/>
<path style="fill:#ebc2c3; stroke:none;" d="M88.6667 152.333C88.2222 152.778 89.2778 152.722 89.3333 152.667C89.7778 152.222 88.7222 152.278 88.6667 152.333z"/>
<path style="fill:#c7a5a2; stroke:none;" d="M119 152L120 153L119 152z"/>
<path style="fill:#926969; stroke:none;" d="M148 152L149 153L148 152z"/>
<path style="fill:#e7cac6; stroke:none;" d="M149 152L150 153L149 152z"/>
<path style="fill:#ffe6e7; stroke:none;" d="M77 153C78.769 153.779 80.0359 153.912 82 154C80.231 153.221 78.9641 153.088 77 153z"/>
<path style="fill:#8c6767; stroke:none;" d="M121 153L122 154L121 153z"/>
<path style="fill:#71353d; stroke:none;" d="M142 153C143.248 153.685 143.548 153.749 145 154C143.752 153.315 143.452 153.251 142 153z"/>
<path style="fill:#c8989b; stroke:none;" d="M145 153L146 154L145 153z"/>
<path style="fill:#7c4d50; stroke:none;" d="M124 154C125.506 154.683 126.315 154.826 128 155C126.494 154.317 125.685 154.174 124 154z"/>
<path style="fill:#45040c; stroke:none;" d="M130 154C131.506 154.683 132.315 154.826 134 155C132.494 154.317 131.685 154.174 130 154z"/>
<path style="fill:#541b21; stroke:none;" d="M134 154C135.506 154.683 136.315 154.826 138 155C136.494 154.317 135.685 154.174 134 154z"/>
<path style="fill:#937072; stroke:none;" d="M138 154L139 155L138 154z"/>
<path style="fill:#e3c7c6; stroke:none;" d="M139 154L140 155L139 154z"/>
</svg>
