<?xml version="1.0" standalone="no"?><!DOCTYPE svg PUBLIC "-//W3C//DTD SVG 1.1//EN" "http://www.w3.org/Graphics/SVG/1.1/DTD/svg11.dtd"><svg t="1502683891821" class="icon" style="" viewBox="0 0 1024 1024" version="1.1" xmlns="http://www.w3.org/2000/svg" p-id="2885" xmlns:xlink="http://www.w3.org/1999/xlink" width="16" height="16"><defs><style type="text/css"></style></defs><path d="M282.6 363.8c-23.7 0-47-15.7-47-38.9 0-23.7 23.3-38.9 46.5-38.9 23.7 0 38.9 15.2 38.9 38.9 0.5 23.2-15.1 38.9-38.4 38.9zM500.4 286c23.7 0 38.9 15.2 38.9 38.9 0 23.3-15.2 38.9-38.9 38.9-23.3 0-47-15.7-47-38.9 0-23.7 23.7-38.9 47-38.9z m167.7 84.5c9.8 0 19.7 0.5 30 1.8-27.3-125.6-161.4-218.7-314.4-218.7C212.4 153.6 72 270.3 72 418.3c0 85.9 46.5 155.6 124.8 210.2l-31.3 93.9 109.1-54.6c38.9 7.6 70.2 15.7 109.1 15.7 9.4 0 19.2-0.5 29.1-1.3-6.3-20.6-9.8-42.9-9.8-65.3-0.1-136 116.6-246.4 265.1-246.4z" p-id="2886"></path><path d="M772.7 573.9c-15.2 0-30.9-15.2-30.9-30.9 0.5-15.7 15.7-31.3 30.9-31.3 23.7 0 39.4 15.7 39.4 31.3-0.1 15.7-15.7 30.9-39.4 30.9z m-171.3 0c-15.2 0-30.9-15.2-30.9-30.9s15.7-31.3 30.9-31.3c23.7 0 38.9 15.7 38.9 31.3 0.5 15.7-15.2 30.9-38.9 30.9zM952 613.3C952 488.5 827.2 387 687.3 387c-148 0-264.7 101.5-264.7 226.3 0 124.8 116.7 225.8 264.7 225.8 31.3 0 62.6-8.1 93.5-15.7l85.9 47-23.7-77.8c62.5-47 109-109.1 109-179.3z" p-id="2887"></path></svg>
